<?xml version="1.0" encoding="UTF-8" standalone="no"?>
<!DOCTYPE svg PUBLIC "-//W3C//DTD SVG 1.1//EN" "http://www.w3.org/Graphics/SVG/1.1/DTD/svg11.dtd">
<!-- Created with Vectornator (http://vectornator.io/) -->
<svg height="100%" stroke-miterlimit="10" style="fill-rule:nonzero;clip-rule:evenodd;stroke-linecap:round;stroke-linejoin:round;" version="1.1" viewBox="0 0 1024 1024" width="100%" xml:space="preserve" xmlns="http://www.w3.org/2000/svg" xmlns:vectornator="http://vectornator.io" xmlns:xlink="http://www.w3.org/1999/xlink">
<defs>
<clipPath id="TextBounds">
<rect height="54.5825" width="146.009" x="581.286" y="81.3479"/>
</clipPath>
<clipPath id="TextBounds_2">
<rect height="56.1495" width="173.339" x="608.03" y="244.676"/>
</clipPath>
<clipPath id="TextBounds_3">
<rect height="64.3004" width="156.262" x="667.091" y="562.27"/>
</clipPath>
<clipPath id="TextBounds_4">
<rect height="63.7442" width="163.571" x="863.319" y="838.492"/>
</clipPath>
</defs>
<g id="Layer-10" vectornator:layerName="Layer 10" visibility="hidden">
<path d="M1024 910.222C1024 910.222 1024 1024 910.222 1024L113.778 1024C113.778 1024 0 1024 0 910.222L0 113.778C0 1.13687e-13 113.778 1.13687e-13 113.778 1.13687e-13L910.222 1.13687e-13C1024 1.13687e-13 1024 113.778 1024 113.778L1024 910.222Z" fill="#88c9f9" fill-rule="nonzero" opacity="1" stroke="none"/>
<path d="M0 910.222C0 1024 113.778 1024 113.778 1024L910.222 1024C1024 1024 1024 910.222 1024 910.222L1024 540.444L0 540.444L0 910.222Z" fill="#77b255" fill-rule="nonzero" opacity="1" stroke="none"/>
<path d="M860.383 132.071C852.59 132.071 845.052 133.266 837.998 135.456C829.578 111.478 806.823 94.2402 779.971 94.2402C751.157 94.2402 727.064 114.066 720.351 140.804C713.24 135.428 704.451 132.1 694.808 132.1C671.285 132.1 652.227 151.158 652.227 174.681C652.227 180.398 653.393 185.831 655.47 190.809C651.374 189.671 647.164 188.875 642.783 188.875C616.643 188.846 595.48 210.009 595.48 236.15C595.48 262.29 616.643 283.453 642.783 283.453L860.383 283.453C902.168 283.453 936.074 249.575 936.074 207.762C936.103 165.977 902.168 132.071 860.383 132.071Z" fill="#f5f8fa" fill-rule="nonzero" opacity="1" stroke="none"/>
<path d="M101.319 430.222C161.991 430.222 202.411 494.279 232.761 494.279C263.111 494.279 267.093 480 307.541 480C347.989 480 360.42 540.444 404.679 540.444L0 540.444L0.142222 483.527C0.142222 483.527 38.1156 430.222 101.319 430.222ZM922.681 463.986C862.009 463.986 821.589 494.279 791.239 494.279C760.917 494.279 755.143 490.667 714.695 490.667C674.247 490.667 663.58 540.444 619.321 540.444L1024 540.444L1023.83 483.527C1023.83 483.527 985.884 463.986 922.681 463.986Z" fill="#5c913b" fill-rule="nonzero" opacity="1" stroke="none"/>
</g>
<g id="Layer-11" vectornator:layerName="Layer 11" visibility="hidden">
<path d="M1024 910.222C1024 973.056 973.056 1024 910.222 1024L113.778 1024C50.944 1024 0 973.056 0 910.222L0 113.778C0 50.944 50.944 0 113.778 0L910.222 0C973.056 0 1024 50.944 1024 113.778L1024 910.222Z" fill="#d9d9d9" fill-rule="nonzero" opacity="1" stroke="none"/>
<path d="M445.781 435.996C445.781 455.993 445.781 486.798 408.491 486.798C385.792 486.798 376.604 474.368 371.2 453.831C351.204 477.611 326.884 490.041 297.159 490.041C224.199 490.041 168.562 427.89 168.562 340.366C168.562 255.004 225.849 189.611 297.159 189.611C325.803 189.611 353.906 200.96 371.2 225.28C373.362 206.364 389.575 192.853 408.491 192.853C445.781 192.853 445.781 223.659 445.781 243.655C445.781 243.655 445.781 435.996 445.781 435.996ZM307.996 418.702C348.53 418.702 367.986 377.628 367.986 340.366C367.986 303.076 349.07 260.949 307.996 260.949C265.301 260.949 246.386 303.076 246.386 340.366C246.414 377.628 265.842 418.702 307.996 418.702ZM403.399 731.164C383.943 731.164 366.649 716.032 341.788 716.032C297.472 716.032 276.423 755.484 276.423 795.477C276.423 833.849 299.662 873.842 341.788 873.842C361.244 873.842 390.428 857.628 399.616 857.628C417.991 857.628 433.124 873.301 433.124 891.676C433.124 931.641 366.108 945.152 338.034 945.152C254.265 945.152 198.628 876.544 198.628 795.477C198.628 716.601 255.915 644.722 338.034 644.722C368.839 644.722 433.124 656.071 433.124 693.902C433.095 710.087 421.746 731.164 403.399 731.164ZM578.162 110.706C578.162 84.7644 594.347 67.4702 617.045 67.4702C639.744 67.4702 655.957 84.7644 655.957 110.706L655.957 216.604C676.494 198.77 702.948 189.582 729.998 189.582C813.739 189.582 855.353 267.918 855.353 343.58C855.353 417.081 805.66 490.012 727.268 490.012C700.814 490.012 670.549 478.123 655.957 454.343C651.093 474.88 638.663 486.77 617.045 486.77C594.347 486.77 578.162 469.476 578.162 443.534C578.162 443.534 578.162 110.706 578.162 110.706ZM717.028 418.702C757.561 418.702 777.557 376.576 777.557 340.366C777.557 303.616 757.561 260.949 717.028 260.949C675.413 260.949 655.986 299.861 655.986 337.664C655.986 375.495 674.332 418.702 717.028 418.702ZM844.004 898.674C844.004 924.615 827.819 941.938 805.12 941.938C783.502 941.938 771.072 930.048 766.236 909.511C751.616 933.262 721.351 945.152 694.898 945.152C616.533 945.152 566.812 872.22 566.812 798.748C566.812 723.086 608.427 644.75 692.167 644.75C719.189 644.75 745.671 653.909 766.236 671.744L766.236 565.845C766.236 539.876 782.421 522.61 805.12 522.61C827.819 522.61 844.004 539.904 844.004 565.845C844.004 565.845 844.004 898.674 844.004 898.674ZM705.138 716.032C664.604 716.032 644.608 758.727 644.608 795.477C644.608 831.687 664.604 873.842 705.138 873.842C747.833 873.842 766.208 830.578 766.208 792.775C766.236 754.944 746.752 716.032 705.138 716.032Z" fill="#ffffff" fill-rule="nonzero" opacity="1" stroke="none"/>
</g>
<g id="Layer-12" vectornator:layerName="Layer 12" visibility="hidden">
<path d="M1024 910.222C1024 973.056 973.056 1024 910.222 1024L113.778 1024C50.944 1024 0 973.056 0 910.222L0 113.778C0 50.944 50.944 0 113.778 0L910.222 0C973.056 0 1024 50.944 1024 113.778L1024 910.222Z" fill="#fddf19" fill-rule="nonzero" opacity="0.3" stroke="none"/>
<path d="M227.669 137.188C236.857 112.327 257.934 92.3307 285.497 92.3307C314.14 92.3307 334.137 111.246 343.324 137.188L449.252 431.132C452.494 439.78 453.575 447.346 453.575 451.129C453.575 472.206 436.281 486.77 416.284 486.77C393.586 486.77 382.236 474.908 376.832 458.667L360.619 407.865L210.375 407.865L194.162 458.126C188.757 474.88 177.408 486.77 155.25 486.77C133.632 486.77 115.257 470.556 115.257 448.939C115.257 440.292 117.959 433.806 119.04 431.104L227.669 137.188ZM233.614 333.34L336.27 333.34L286.009 176.64L284.928 176.64C284.928 176.64 233.614 333.34 233.614 333.34ZM314.425 547.442C353.877 547.442 430.592 560.412 430.592 607.943C430.592 627.428 417.081 644.181 397.084 644.181C374.926 644.181 359.794 625.266 314.396 625.266C247.41 625.266 212.821 682.012 212.821 747.918C212.821 812.231 247.95 867.328 314.396 867.328C359.794 867.328 378.169 844.629 400.299 844.629C424.619 844.629 435.968 868.978 435.968 881.38C435.968 933.234 354.361 945.124 314.396 945.124C204.715 945.124 128.512 858.112 128.512 746.297C128.54 633.884 204.174 547.442 314.425 547.442ZM580.324 139.349C580.324 113.408 598.158 98.816 622.99 98.816L726.756 98.816C782.962 98.816 828.331 136.647 828.331 193.906C828.331 231.737 812.658 257.138 778.069 273.323L778.069 274.404C824.007 280.889 860.217 319.26 860.217 366.251C860.217 442.453 809.444 483.527 734.862 483.527L623.559 483.527C598.699 483.527 580.324 467.854 580.324 442.453C580.324 442.453 580.324 139.349 580.324 139.349ZM661.39 251.193L703.488 251.193C729.998 251.193 747.264 235.52 747.264 208.526C747.264 183.125 727.268 170.155 703.488 170.155L661.39 170.155L661.39 251.193ZM661.39 412.217L725.134 412.217C754.318 412.217 775.936 395.463 775.936 365.227C775.936 339.826 756.452 322.532 718.649 322.532L661.362 322.532L661.362 412.217L661.39 412.217ZM565.988 595.57C565.988 570.681 583.282 553.956 607.602 553.956L697.287 553.956C818.318 553.956 887.495 631.751 887.495 751.701C887.495 865.166 814.023 938.667 702.72 938.667L608.654 938.667C590.82 938.667 565.988 928.939 565.988 898.133C565.988 898.133 565.988 595.57 565.988 595.57ZM647.054 864.085L701.611 864.085C771.328 864.085 803.214 812.743 803.214 747.918C803.214 678.741 770.759 628.508 696.206 628.508L647.026 628.508L647.026 864.085L647.054 864.085Z" fill="#ffffff" fill-rule="nonzero" opacity="1" stroke="none"/>
</g>
<g id="Layer-13" vectornator:layerName="Layer 13">
<path d="M1024 910.222C1024 973.056 973.056 1024 910.222 1024L113.778 1024C50.944 1024 0 973.056 0 910.222L0 113.778C0 50.944 50.944 0 113.778 0L910.222 0C973.056 0 1024 50.944 1024 113.778L1024 910.222Z" fill="#dceee1" fill-rule="nonzero" opacity="1" stroke="none"/>
<path d="M227.669 137.188C236.857 112.327 257.934 92.3307 285.497 92.3307C314.14 92.3307 334.137 111.246 343.324 137.188L449.252 431.132C452.494 439.78 453.575 447.346 453.575 451.129C453.575 472.206 436.281 486.77 416.284 486.77C393.586 486.77 382.236 474.908 376.832 458.667L360.619 407.865L210.375 407.865L194.162 458.126C188.757 474.88 177.408 486.77 155.25 486.77C133.632 486.77 115.257 470.556 115.257 448.939C115.257 440.292 117.959 433.806 119.04 431.104L227.669 137.188ZM233.614 333.34L336.27 333.34L286.009 176.64L284.928 176.64C284.928 176.64 233.614 333.34 233.614 333.34ZM314.425 547.442C353.877 547.442 430.592 560.412 430.592 607.943C430.592 627.428 417.081 644.181 397.084 644.181C374.926 644.181 359.794 625.266 314.396 625.266C247.41 625.266 212.821 682.012 212.821 747.918C212.821 812.231 247.95 867.328 314.396 867.328C359.794 867.328 378.169 844.629 400.299 844.629C424.619 844.629 435.968 868.978 435.968 881.38C435.968 933.234 354.361 945.124 314.396 945.124C204.715 945.124 128.512 858.112 128.512 746.297C128.54 633.884 204.174 547.442 314.425 547.442ZM580.324 139.349C580.324 113.408 598.158 98.816 622.99 98.816L726.756 98.816C782.962 98.816 828.331 136.647 828.331 193.906C828.331 231.737 812.658 257.138 778.069 273.323L778.069 274.404C824.007 280.889 860.217 319.26 860.217 366.251C860.217 442.453 809.444 483.527 734.862 483.527L623.559 483.527C598.699 483.527 580.324 467.854 580.324 442.453C580.324 442.453 580.324 139.349 580.324 139.349ZM661.39 251.193L703.488 251.193C729.998 251.193 747.264 235.52 747.264 208.526C747.264 183.125 727.268 170.155 703.488 170.155L661.39 170.155L661.39 251.193ZM661.39 412.217L725.134 412.217C754.318 412.217 775.936 395.463 775.936 365.227C775.936 339.826 756.452 322.532 718.649 322.532L661.362 322.532L661.362 412.217L661.39 412.217ZM565.988 595.57C565.988 570.681 583.282 553.956 607.602 553.956L697.287 553.956C818.318 553.956 887.495 631.751 887.495 751.701C887.495 865.166 814.023 938.667 702.72 938.667L608.654 938.667C590.82 938.667 565.988 928.939 565.988 898.133C565.988 898.133 565.988 595.57 565.988 595.57ZM647.054 864.085L701.611 864.085C771.328 864.085 803.214 812.743 803.214 747.918C803.214 678.741 770.759 628.508 696.206 628.508L647.026 628.508L647.026 864.085L647.054 864.085Z" fill="#ffffff" fill-rule="nonzero" opacity="1" stroke="none"/>
</g>
<g id="Layer-14" vectornator:layerName="Layer 14" visibility="hidden">
<path d="M1024 910.222C1024 973.056 973.056 1024 910.222 1024L113.778 1024C50.944 1024 0 973.056 0 910.222L0 113.778C0 50.944 50.944 0 113.778 0L910.222 0C973.056 0 1024 50.944 1024 113.778L1024 910.222Z" fill="#f0f0f0" fill-rule="nonzero" opacity="1" stroke="none"/>
<path d="M227.669 137.188C236.857 112.327 257.934 92.3307 285.497 92.3307C314.14 92.3307 334.137 111.246 343.324 137.188L449.252 431.132C452.494 439.78 453.575 447.346 453.575 451.129C453.575 472.206 436.281 486.77 416.284 486.77C393.586 486.77 382.236 474.908 376.832 458.667L360.619 407.865L210.375 407.865L194.162 458.126C188.757 474.88 177.408 486.77 155.25 486.77C133.632 486.77 115.257 470.556 115.257 448.939C115.257 440.292 117.959 433.806 119.04 431.104L227.669 137.188ZM233.614 333.34L336.27 333.34L286.009 176.64L284.928 176.64C284.928 176.64 233.614 333.34 233.614 333.34ZM314.425 547.442C353.877 547.442 430.592 560.412 430.592 607.943C430.592 627.428 417.081 644.181 397.084 644.181C374.926 644.181 359.794 625.266 314.396 625.266C247.41 625.266 212.821 682.012 212.821 747.918C212.821 812.231 247.95 867.328 314.396 867.328C359.794 867.328 378.169 844.629 400.299 844.629C424.619 844.629 435.968 868.978 435.968 881.38C435.968 933.234 354.361 945.124 314.396 945.124C204.715 945.124 128.512 858.112 128.512 746.297C128.54 633.884 204.174 547.442 314.425 547.442ZM580.324 139.349C580.324 113.408 598.158 98.816 622.99 98.816L726.756 98.816C782.962 98.816 828.331 136.647 828.331 193.906C828.331 231.737 812.658 257.138 778.069 273.323L778.069 274.404C824.007 280.889 860.217 319.26 860.217 366.251C860.217 442.453 809.444 483.527 734.862 483.527L623.559 483.527C598.699 483.527 580.324 467.854 580.324 442.453C580.324 442.453 580.324 139.349 580.324 139.349ZM661.39 251.193L703.488 251.193C729.998 251.193 747.264 235.52 747.264 208.526C747.264 183.125 727.268 170.155 703.488 170.155L661.39 170.155L661.39 251.193ZM661.39 412.217L725.134 412.217C754.318 412.217 775.936 395.463 775.936 365.227C775.936 339.826 756.452 322.532 718.649 322.532L661.362 322.532L661.362 412.217L661.39 412.217ZM565.988 595.57C565.988 570.681 583.282 553.956 607.602 553.956L697.287 553.956C818.318 553.956 887.495 631.751 887.495 751.701C887.495 865.166 814.023 938.667 702.72 938.667L608.654 938.667C590.82 938.667 565.988 928.939 565.988 898.133C565.988 898.133 565.988 595.57 565.988 595.57ZM647.054 864.085L701.611 864.085C771.328 864.085 803.214 812.743 803.214 747.918C803.214 678.741 770.759 628.508 696.206 628.508L647.026 628.508L647.026 864.085L647.054 864.085Z" fill="#ffffff" fill-rule="nonzero" opacity="1" stroke="none"/>
</g>
<g id="Layer-1" vectornator:layerName="Layer 1">
<g fill="#000000" opacity="1" stroke="#000000" stroke-linecap="butt" stroke-linejoin="miter" stroke-width="2">
<path clip-path="url(#TextBounds)" d="M609.874 94.9866C609.874 95.6246 609.834 97.0203 609.754 99.1736C609.64 102.227 609.583 104.266 609.583 105.292C609.583 106.477 609.538 108.265 609.447 110.658C609.367 112.447 609.327 113.757 609.327 114.589C609.327 115.796 609.384 117.055 609.498 118.366C609.532 118.742 609.549 119.026 609.549 119.22C609.549 119.721 609.367 120.134 609.002 120.459C608.638 120.784 608.153 120.946 607.55 120.946C606.991 120.946 606.55 120.795 606.225 120.493C605.9 120.191 605.738 119.778 605.738 119.254C605.738 118.81 605.795 118.149 605.909 117.272C605.989 116.508 606.051 115.819 606.097 115.204C606.188 113.882 606.302 111.174 606.439 107.078C606.576 102.982 606.661 99.4414 606.695 96.4563C605.761 98.8261 604.08 102.979 601.654 108.915L598.783 116.007C598.555 116.577 598.293 116.99 597.996 117.246C597.7 117.502 597.358 117.631 596.971 117.631C596.504 117.631 596.114 117.517 595.8 117.289C595.487 117.061 595.262 116.634 595.125 116.007C595.011 115.426 594.869 114.623 594.698 113.597C594.254 110.92 593.861 108.704 593.519 106.95C593.006 104.295 592.362 100.888 591.588 96.7298C591.554 96.8665 591.528 97.0004 591.511 97.1314C591.494 97.2624 591.474 97.3849 591.451 97.4988C590.79 100.974 590.283 103.811 589.93 106.01C589.474 108.881 589.09 111.179 588.776 112.905C588.463 114.631 588.118 116.474 587.742 118.434L587.555 119.442C587.463 119.932 587.23 120.305 586.854 120.562C586.478 120.818 586.011 120.946 585.452 120.946C584.951 120.946 584.541 120.804 584.222 120.519C583.903 120.234 583.743 119.864 583.743 119.408C583.743 119.192 583.786 118.91 583.872 118.562C583.957 118.215 584.102 117.676 584.307 116.947C584.786 115.249 585.23 113.569 585.64 111.906C586.051 110.242 586.495 108.123 586.973 105.548C587.668 101.834 588.301 98.2166 588.87 94.6961C589.121 93.0327 590.112 92.201 591.844 92.201C592.38 92.201 592.807 92.3149 593.126 92.5428C593.445 92.7706 593.701 93.1438 593.895 93.6622C594.089 94.1805 594.271 94.9126 594.442 95.8582C595.592 102.375 596.567 108.003 597.364 112.743L604.661 94.303C604.923 93.6308 605.285 93.1124 605.747 92.7478C606.208 92.3833 606.815 92.201 607.567 92.201C608.273 92.201 608.834 92.4459 609.25 92.9358C609.666 93.4257 609.874 94.1093 609.874 94.9866Z"/>
<path clip-path="url(#TextBounds)" d="M620.743 121.117C619.399 121.117 618.208 120.804 617.171 120.177C616.134 119.55 615.328 118.653 614.753 117.485C614.178 116.318 613.89 114.959 613.89 113.409C613.89 111.381 614.289 109.325 615.086 107.24C615.884 105.155 616.992 103.426 618.41 102.053C619.829 100.68 621.415 99.9939 623.17 99.9939C624.446 99.9939 625.597 100.407 626.622 101.233C627.647 102.059 628.453 103.258 629.04 104.83C629.627 106.403 629.92 108.26 629.92 110.402C629.92 112.498 629.521 114.358 628.724 115.981C627.926 117.605 626.83 118.867 625.434 119.767C624.038 120.667 622.475 121.117 620.743 121.117ZM626.724 109.701C626.724 108.254 626.568 107.001 626.254 105.941C625.941 104.882 625.497 104.073 624.921 103.514C624.346 102.956 623.671 102.677 622.896 102.677C621.746 102.677 620.74 103.25 619.88 104.395C619.02 105.54 618.367 106.961 617.923 108.658C617.479 110.356 617.257 111.997 617.257 113.58C617.257 115.232 617.519 116.483 618.043 117.332C618.567 118.18 619.404 118.605 620.555 118.605C621.694 118.605 622.734 118.237 623.674 117.502C624.614 116.768 625.357 115.725 625.904 114.375C626.451 113.025 626.724 111.467 626.724 109.701Z"/>
<path clip-path="url(#TextBounds)" d="M650.035 91.1072C650.57 91.1072 651.009 91.2553 651.351 91.5516C651.693 91.8478 651.864 92.2181 651.864 92.6624C651.864 92.9017 651.772 93.3859 651.59 94.115C651.396 94.8898 651.26 95.5335 651.18 96.0462C650.793 98.4502 650.314 102.011 649.744 106.727C649.38 109.678 649.109 111.945 648.933 113.529C648.756 115.113 648.668 116.161 648.668 116.674C648.668 117.209 648.713 117.762 648.805 118.331C648.861 118.696 648.89 118.981 648.89 119.186C648.89 119.71 648.722 120.134 648.386 120.459C648.05 120.784 647.614 120.946 647.078 120.946C646.406 120.946 645.956 120.661 645.728 120.092C645.5 119.522 645.387 118.696 645.387 117.614C645.387 117.01 645.432 116.372 645.523 115.7C644.68 117.34 643.66 118.653 642.464 119.639C641.268 120.624 640.037 121.117 638.773 121.117C637.599 121.117 636.577 120.801 635.705 120.169C634.834 119.536 634.164 118.63 633.697 117.451C633.23 116.272 632.996 114.896 632.996 113.324C632.996 111.08 633.412 108.929 634.244 106.873C635.076 104.816 636.241 103.153 637.739 101.882C639.237 100.612 640.937 99.9769 642.84 99.9769C643.74 99.9769 644.529 100.122 645.207 100.413C645.885 100.703 646.486 101.15 647.01 101.754C647.158 101.936 647.272 102.102 647.352 102.25C647.648 99.618 647.839 97.7068 647.924 96.5162C648.01 95.3256 648.07 94.2631 648.104 93.3289C648.104 92.9757 648.115 92.7194 648.138 92.5599C648.195 92.1041 648.392 91.7481 648.728 91.4917C649.064 91.2354 649.499 91.1072 650.035 91.1072ZM647.147 104.078C646.953 104.192 646.748 104.249 646.532 104.249C646.201 104.249 645.916 104.13 645.677 103.89C645.256 103.492 644.834 103.19 644.412 102.985C643.991 102.78 643.495 102.677 642.926 102.677C641.615 102.677 640.433 103.221 639.379 104.309C638.326 105.397 637.505 106.784 636.919 108.471C636.332 110.157 636.038 111.843 636.038 113.529C636.038 115.033 636.303 116.192 636.833 117.007C637.363 117.821 638.118 118.229 639.097 118.229C639.998 118.229 640.955 117.776 641.969 116.87C642.983 115.964 643.903 114.799 644.729 113.375C645.555 111.951 646.156 110.51 646.532 109.052L646.685 107.855L647.147 104.078Z"/>
<path clip-path="url(#TextBounds)" d="M667.432 114.554C667.888 114.554 668.27 114.705 668.577 115.007C668.885 115.309 669.039 115.677 669.039 116.11C669.039 116.862 668.617 117.628 667.774 118.408C666.931 119.189 665.874 119.835 664.604 120.348C663.334 120.861 662.117 121.117 660.955 121.117C659.543 121.117 658.306 120.809 657.247 120.194C656.187 119.579 655.367 118.693 654.786 117.537C654.205 116.38 653.914 115.016 653.914 113.444C653.914 111.29 654.359 109.171 655.247 107.086C656.136 105.001 657.355 103.295 658.905 101.968C660.454 100.641 662.174 99.9769 664.066 99.9769C665.228 99.9769 666.225 100.202 667.056 100.652C667.888 101.102 668.523 101.74 668.962 102.566C669.401 103.392 669.62 104.363 669.62 105.48C669.62 107.018 669.016 108.351 667.808 109.479C666.601 110.607 665.043 111.473 663.134 112.076C661.226 112.68 659.235 113.011 657.161 113.068L657.161 113.392C657.161 114.987 657.48 116.258 658.118 117.203C658.756 118.149 659.679 118.622 660.887 118.622C661.81 118.622 662.676 118.374 663.485 117.878C664.294 117.383 665.103 116.531 665.911 115.324C666.071 115.073 666.282 114.882 666.544 114.751C666.806 114.62 667.102 114.554 667.432 114.554ZM663.707 102.814C662.704 102.814 661.773 103.187 660.913 103.933C660.052 104.679 659.323 105.656 658.725 106.864C658.127 108.072 657.697 109.359 657.435 110.726C658.802 110.681 660.201 110.419 661.63 109.94C663.06 109.462 664.248 108.818 665.194 108.009C666.139 107.2 666.612 106.311 666.612 105.343C666.612 104.865 666.49 104.434 666.245 104.053C666 103.671 665.655 103.369 665.211 103.147C664.766 102.925 664.265 102.814 663.707 102.814Z"/>
<path clip-path="url(#TextBounds)" d="M674.627 120.946C674.115 120.946 673.679 120.795 673.32 120.493C672.961 120.191 672.782 119.835 672.782 119.425C672.782 119.22 672.81 118.964 672.867 118.656C672.924 118.348 672.992 118.012 673.072 117.648C673.323 116.543 673.534 115.432 673.704 114.315C674.092 111.923 674.439 109.479 674.747 106.984C675.282 102.654 675.633 99.5468 675.798 97.6612C675.963 95.7756 676.063 94.3315 676.097 93.3289C676.12 92.896 676.137 92.6396 676.148 92.5599C676.205 92.1041 676.41 91.7481 676.763 91.4917C677.117 91.2354 677.584 91.1072 678.165 91.1072C678.689 91.1072 679.122 91.2582 679.464 91.5601C679.805 91.862 679.976 92.2409 679.976 92.6966C679.976 92.8561 679.897 93.2833 679.737 93.9783C679.543 94.7303 679.395 95.4196 679.293 96.0462C679.088 97.3108 678.851 98.9116 678.584 100.848C678.316 102.785 678.068 104.745 677.84 106.727C677.225 112.162 676.877 115.962 676.798 118.126C676.752 118.81 676.718 119.254 676.695 119.459C676.638 119.915 676.427 120.277 676.063 120.544C675.698 120.812 675.22 120.946 674.627 120.946Z"/>
</g>
<g fill="#000000" opacity="1" stroke="#000000" stroke-linecap="butt" stroke-linejoin="miter" stroke-width="2">
<path clip-path="url(#TextBounds_2)" d="M628.448 269.782C628.847 272.642 629.206 275.165 629.525 277.353C629.582 277.729 629.682 278.432 629.824 279.463C629.967 280.494 630.066 281.243 630.123 281.711C630.18 282.178 630.209 282.491 630.209 282.651C630.209 283.163 630.041 283.562 629.704 283.847C629.368 284.132 628.91 284.274 628.329 284.274C627.691 284.274 627.189 284.103 626.825 283.761C626.46 283.42 626.278 282.918 626.278 282.257C626.278 281.357 626.113 279.107 625.782 275.507L625.03 275.524C624.142 275.547 623.304 275.558 622.518 275.558C621.447 275.558 619.989 275.587 618.143 275.644L616.81 275.678C615.454 279.13 614.532 281.585 614.042 283.044C613.757 283.864 613.09 284.274 612.042 284.274C611.495 284.274 611.048 284.106 610.701 283.77C610.353 283.434 610.179 282.987 610.179 282.428C610.179 282.223 610.228 282.018 610.325 281.813C610.421 281.608 610.589 281.295 610.829 280.873C611.284 280.098 611.626 279.46 611.854 278.959L613.29 275.712C612.8 275.678 612.395 275.538 612.076 275.293C611.757 275.048 611.598 274.698 611.598 274.242C611.598 273.695 611.74 273.28 612.025 272.995C612.31 272.71 612.686 272.568 613.153 272.568L614.606 272.602L615.768 269.799L616.349 268.398C617.42 265.811 618.271 263.786 618.904 262.322C619.536 260.858 620.257 259.26 621.066 257.528C621.886 255.774 623.094 254.897 624.689 254.897C625.292 254.897 625.797 255.073 626.201 255.426C626.606 255.78 626.836 256.269 626.893 256.896C627.201 260.132 627.719 264.427 628.448 269.782ZM620.843 272.738C622.154 272.738 623.709 272.727 625.509 272.704C625.509 272.613 625.498 272.476 625.475 272.294C625.156 268.91 624.683 264.165 624.056 258.058C623.441 259.391 622.692 261.097 621.809 263.177C620.926 265.256 620.063 267.367 619.22 269.508C618.969 270.124 618.644 270.955 618.246 272.004L617.972 272.704C619.248 272.727 620.205 272.738 620.843 272.738Z"/>
<path clip-path="url(#TextBounds_2)" d="M636.361 284.274C635.848 284.274 635.412 284.123 635.054 283.821C634.695 283.519 634.515 283.163 634.515 282.753C634.515 282.548 634.544 282.292 634.601 281.984C634.658 281.676 634.726 281.34 634.806 280.976C635.056 279.871 635.267 278.76 635.438 277.643C635.825 275.251 636.173 272.807 636.481 270.312C637.016 265.982 637.366 262.875 637.532 260.989C637.697 259.104 637.797 257.659 637.831 256.657C637.853 256.224 637.871 255.968 637.882 255.888C637.939 255.432 638.144 255.076 638.497 254.82C638.85 254.563 639.318 254.435 639.899 254.435C640.423 254.435 640.856 254.586 641.197 254.888C641.539 255.19 641.71 255.569 641.71 256.025C641.71 256.184 641.63 256.611 641.471 257.306C641.277 258.058 641.129 258.748 641.026 259.374C640.821 260.639 640.585 262.24 640.317 264.176C640.05 266.113 639.802 268.073 639.574 270.055C638.959 275.49 638.611 279.29 638.531 281.454C638.486 282.138 638.452 282.582 638.429 282.787C638.372 283.243 638.161 283.605 637.797 283.872C637.432 284.14 636.953 284.274 636.361 284.274Z"/>
<path clip-path="url(#TextBounds_2)" d="M659.757 263.39C660.27 263.39 660.674 263.544 660.97 263.852C661.267 264.159 661.415 264.501 661.415 264.877C661.415 265.287 661.375 265.717 661.295 266.167C661.215 266.617 661.09 267.235 660.919 268.022C660.76 268.705 660.651 269.212 660.594 269.543C660.344 270.933 660.161 272.029 660.047 272.832C659.934 273.636 659.74 275.154 659.466 277.387C658.908 282.024 658.267 285.573 657.544 288.034C656.82 290.495 655.855 292.255 654.647 293.315C653.439 294.374 651.787 294.904 649.691 294.904C648.62 294.904 647.529 294.659 646.418 294.169C645.308 293.679 644.39 293.018 643.667 292.187C642.943 291.355 642.582 290.466 642.582 289.521C642.582 289.076 642.741 288.672 643.06 288.307C643.379 287.943 643.749 287.76 644.171 287.76C644.501 287.76 644.766 287.803 644.966 287.889C645.165 287.974 645.336 288.108 645.478 288.29C645.621 288.472 645.795 288.752 646 289.128C646.41 289.88 646.945 290.577 647.606 291.221C648.267 291.865 649.104 292.187 650.118 292.187C651.292 292.187 652.286 291.705 653.1 290.743C653.915 289.78 654.593 288.307 655.134 286.325C655.675 284.342 656.111 281.768 656.442 278.6C655.598 280.355 654.559 281.768 653.323 282.839C652.086 283.909 650.79 284.445 649.435 284.445C648.273 284.445 647.256 284.129 646.384 283.496C645.513 282.864 644.843 281.964 644.376 280.796C643.909 279.628 643.675 278.258 643.675 276.686C643.675 274.328 644.08 272.123 644.889 270.072C645.698 268.022 646.851 266.381 648.349 265.151C649.848 263.92 651.577 263.305 653.536 263.305C654.448 263.305 655.248 263.479 655.937 263.826C656.627 264.174 657.228 264.7 657.74 265.407C657.82 264.746 658.034 264.245 658.381 263.903C658.729 263.561 659.187 263.39 659.757 263.39ZM649.759 281.557C650.614 281.557 651.517 281.152 652.468 280.343C653.419 279.534 654.297 278.483 655.1 277.19C655.903 275.897 656.521 274.55 656.954 273.149C656.977 272.852 657 272.63 657.023 272.482C657.205 270.42 657.359 268.802 657.484 267.629C657.37 267.651 657.279 267.663 657.211 267.663C656.914 267.663 656.635 267.543 656.373 267.304C655.929 266.882 655.499 266.56 655.083 266.338C654.667 266.116 654.18 266.005 653.622 266.005C652.311 266.005 651.129 266.552 650.076 267.646C649.022 268.739 648.201 270.132 647.615 271.824C647.028 273.516 646.735 275.205 646.735 276.891C646.735 278.395 646.997 279.549 647.521 280.352C648.045 281.155 648.791 281.557 649.759 281.557Z"/>
<path clip-path="url(#TextBounds_2)" d="M670.814 284.445C669.47 284.445 668.279 284.132 667.242 283.505C666.206 282.878 665.399 281.981 664.824 280.813C664.249 279.646 663.961 278.287 663.961 276.737C663.961 274.709 664.36 272.653 665.157 270.568C665.955 268.483 667.063 266.754 668.481 265.381C669.9 264.008 671.486 263.322 673.241 263.322C674.517 263.322 675.668 263.735 676.693 264.561C677.718 265.387 678.524 266.586 679.111 268.158C679.698 269.731 679.991 271.588 679.991 273.73C679.991 275.826 679.593 277.686 678.795 279.309C677.998 280.933 676.901 282.195 675.505 283.095C674.11 283.995 672.546 284.445 670.814 284.445ZM676.796 273.029C676.796 271.582 676.639 270.329 676.326 269.269C676.012 268.21 675.568 267.401 674.993 266.842C674.417 266.284 673.742 266.005 672.967 266.005C671.817 266.005 670.811 266.578 669.951 267.723C669.091 268.868 668.439 270.289 667.994 271.986C667.55 273.684 667.328 275.325 667.328 276.908C667.328 278.56 667.59 279.811 668.114 280.66C668.638 281.508 669.475 281.933 670.626 281.933C671.765 281.933 672.805 281.565 673.745 280.83C674.685 280.096 675.428 279.053 675.975 277.703C676.522 276.353 676.796 274.795 676.796 273.029Z"/>
<path clip-path="url(#TextBounds_2)" d="M695.526 263.305C696.084 263.305 696.537 263.467 696.885 263.792C697.232 264.117 697.406 264.547 697.406 265.082C697.406 265.595 697.255 266.022 696.953 266.364C696.651 266.706 696.255 266.877 695.765 266.877C695.184 266.877 694.723 266.891 694.381 266.919C694.039 266.948 693.686 267.022 693.321 267.141C692.957 267.261 692.581 267.458 692.193 267.731C691.293 268.358 690.43 269.346 689.604 270.696C688.778 272.046 688.132 273.513 687.665 275.097C687.163 279.096 686.913 281.602 686.913 282.616C686.913 283.106 686.725 283.505 686.349 283.813C685.973 284.12 685.489 284.274 684.896 284.274C684.383 284.274 683.962 284.126 683.631 283.83C683.301 283.533 683.136 283.163 683.136 282.719C683.136 282.537 683.17 282.28 683.238 281.95C683.307 281.619 683.387 281.266 683.478 280.89C683.592 280.446 683.711 279.922 683.837 279.318C684.133 277.882 684.475 275.832 684.862 273.166C685.249 270.5 685.443 268.751 685.443 267.919C685.443 267.52 685.409 267.002 685.34 266.364C685.295 265.84 685.272 265.464 685.272 265.236C685.272 264.678 685.415 264.245 685.699 263.937C685.984 263.63 686.389 263.476 686.913 263.476C687.619 263.476 688.103 263.721 688.365 264.211C688.627 264.7 688.758 265.413 688.758 266.347C688.758 266.814 688.696 267.623 688.57 268.774L688.519 269.184C689.476 267.258 690.556 265.797 691.758 264.8C692.96 263.803 694.216 263.305 695.526 263.305Z"/>
<path clip-path="url(#TextBounds_2)" d="M704.703 260.536C704.134 260.536 703.709 260.402 703.43 260.135C703.151 259.867 703.011 259.448 703.011 258.879C703.011 258.673 703.028 258.446 703.063 258.195C703.177 257.409 703.424 256.814 703.806 256.409C704.188 256.005 704.698 255.802 705.336 255.802C705.917 255.802 706.381 255.919 706.728 256.153C707.076 256.386 707.221 256.685 707.164 257.05C707.13 257.266 707.084 257.432 707.027 257.546C706.971 257.659 706.936 257.728 706.925 257.751C706.822 257.91 706.754 258.081 706.72 258.263C706.697 258.366 706.674 258.565 706.651 258.861L706.6 259.46C706.543 259.824 706.364 260.095 706.062 260.271C705.76 260.448 705.307 260.536 704.703 260.536ZM701.866 284.274C701.376 284.274 700.961 284.143 700.619 283.881C700.277 283.619 700.106 283.237 700.106 282.736C700.106 282.497 700.163 282.055 700.277 281.412C700.391 280.768 700.459 280.389 700.482 280.275C700.562 279.853 700.664 279.261 700.79 278.498C700.961 277.37 701.143 276.088 701.337 274.652C701.394 274.276 701.45 273.878 701.507 273.456C701.564 273.035 701.627 272.585 701.695 272.106C702.06 269.543 702.242 267.196 702.242 265.065C702.242 264.541 702.419 264.117 702.772 263.792C703.125 263.467 703.587 263.305 704.156 263.305C704.692 263.305 705.133 263.442 705.481 263.715C705.828 263.988 706.002 264.37 706.002 264.86C706.002 265.168 705.951 265.632 705.848 266.253C705.746 266.874 705.626 267.537 705.489 268.244C705.455 268.437 705.353 268.993 705.182 269.91C705.011 270.827 704.874 271.707 704.772 272.55C704.532 274.43 704.316 276.339 704.122 278.276C703.929 280.212 703.832 281.665 703.832 282.633C703.832 283.089 703.652 283.477 703.293 283.796C702.934 284.115 702.459 284.274 701.866 284.274Z"/>
<path clip-path="url(#TextBounds_2)" d="M723.229 263.527C723.639 263.527 723.958 263.601 724.186 263.749C724.414 263.897 724.527 264.159 724.527 264.535C724.527 265.116 724.28 265.578 723.784 265.92C723.288 266.261 722.693 266.432 721.998 266.432L720.135 266.449C719.851 266.461 719.423 266.466 718.854 266.466L718.307 270.397C717.84 273.758 717.543 276.196 717.418 277.712C717.293 279.227 717.224 280.514 717.213 281.574C717.213 282.098 717.196 282.502 717.162 282.787C717.116 283.243 716.917 283.605 716.564 283.872C716.21 284.14 715.772 284.274 715.248 284.274C714.724 284.274 714.282 284.12 713.923 283.813C713.564 283.505 713.385 283.14 713.385 282.719C713.385 282.548 713.408 282.337 713.453 282.087C713.499 281.836 713.544 281.617 713.59 281.429C713.636 281.241 713.67 281.09 713.693 280.976C713.966 279.848 714.177 278.805 714.325 277.848C714.519 276.618 714.803 274.51 715.179 271.525L715.777 266.62C715.242 266.677 714.792 266.734 714.427 266.791C713.63 266.894 713.037 266.945 712.65 266.945C712.069 266.945 711.599 266.828 711.24 266.595C710.881 266.361 710.702 265.982 710.702 265.458C710.702 264.877 710.861 264.421 711.18 264.091C711.499 263.761 711.938 263.595 712.496 263.595C712.895 263.595 713.322 263.624 713.778 263.681C714.45 263.772 715.214 263.823 716.068 263.835C716.273 261.75 716.387 260.206 716.41 259.203C716.433 258.736 716.45 258.463 716.461 258.383C716.518 257.939 716.72 257.585 717.068 257.323C717.415 257.061 717.868 256.93 718.426 256.93C718.928 256.93 719.346 257.078 719.683 257.375C720.019 257.671 720.187 258.047 720.187 258.503C720.187 258.879 720.044 259.687 719.759 260.929C719.623 261.567 719.554 261.881 719.554 261.869L719.247 263.715L719.759 263.681C719.942 263.669 720.417 263.641 721.186 263.595C721.955 263.55 722.636 263.527 723.229 263.527Z"/>
<path clip-path="url(#TextBounds_2)" d="M737.909 263.236C739.003 263.236 739.968 263.496 740.806 264.014C741.643 264.532 742.292 265.267 742.754 266.219C743.215 267.17 743.446 268.284 743.446 269.56C743.446 269.867 743.406 270.334 743.326 270.961C743.247 271.588 743.15 272.277 743.036 273.029L742.557 276.549C742.17 279.648 741.976 281.642 741.976 282.531C741.976 283.055 741.777 283.477 741.378 283.796C740.979 284.115 740.467 284.274 739.84 284.274C739.373 284.274 738.974 284.12 738.644 283.813C738.313 283.505 738.148 283.135 738.148 282.702C738.148 282.531 738.199 282.22 738.302 281.77C738.404 281.32 738.513 280.873 738.627 280.429L738.917 279.25C739.213 277.86 739.538 276.085 739.891 273.926C740.244 271.767 740.421 270.3 740.421 269.526C740.421 268.398 740.19 267.552 739.729 266.988C739.267 266.424 738.61 266.142 737.755 266.142C736.752 266.142 735.767 266.503 734.798 267.227C733.83 267.95 732.956 268.962 732.175 270.26C731.395 271.559 730.771 273.035 730.304 274.687C729.996 277.41 729.797 279.7 729.706 281.557C729.683 282.058 729.654 282.468 729.62 282.787C729.575 283.243 729.372 283.605 729.014 283.872C728.655 284.14 728.202 284.274 727.655 284.274C727.176 284.274 726.766 284.12 726.424 283.813C726.083 283.505 725.912 283.146 725.912 282.736C725.912 282.485 726.031 281.768 726.271 280.583C726.51 279.398 726.647 278.731 726.681 278.583C726.783 278.116 726.835 277.871 726.835 277.848C727.051 276.413 727.347 274.191 727.723 271.183C728.304 266.546 728.683 263.222 728.86 261.211C729.036 259.2 729.142 257.677 729.176 256.64C729.199 256.23 729.216 255.979 729.227 255.888C729.284 255.443 729.486 255.09 729.834 254.828C730.181 254.566 730.634 254.435 731.193 254.435C731.694 254.435 732.113 254.586 732.449 254.888C732.785 255.19 732.953 255.569 732.953 256.025C732.953 256.184 732.916 256.429 732.842 256.759C732.768 257.09 732.719 257.295 732.696 257.375C732.48 258.252 732.338 258.918 732.269 259.374C731.893 261.733 731.466 264.894 730.987 268.859C732.013 267.036 733.089 265.643 734.217 264.681C735.345 263.718 736.576 263.236 737.909 263.236Z"/>
<path clip-path="url(#TextBounds_2)" d="M769.918 263.305C771.354 263.305 772.47 263.815 773.268 264.834C774.065 265.854 774.464 267.304 774.464 269.184C774.464 269.594 774.424 270.189 774.344 270.97C774.265 271.75 774.188 272.434 774.114 273.02C774.04 273.607 773.985 274.032 773.951 274.294C773.94 274.385 773.843 275.137 773.661 276.549C773.524 277.7 773.376 279.204 773.216 281.061L773.08 282.633C773.023 283.158 772.806 283.562 772.43 283.847C772.054 284.132 771.559 284.274 770.943 284.274C770.488 284.274 770.103 284.123 769.79 283.821C769.477 283.519 769.32 283.152 769.32 282.719C769.32 282.525 769.403 282.027 769.568 281.224C769.733 280.42 769.884 279.762 770.021 279.25C770.283 278.236 770.573 276.586 770.892 274.302C771.211 272.018 771.371 270.46 771.371 269.628C771.371 268.614 771.177 267.791 770.79 267.159C770.402 266.526 769.884 266.21 769.235 266.21C768.528 266.21 767.782 266.538 766.996 267.193C766.21 267.848 765.458 268.756 764.74 269.919C764.022 271.081 763.401 272.391 762.877 273.849L762.535 276.549C762.399 277.7 762.25 279.204 762.091 281.061L761.954 282.633C761.897 283.146 761.684 283.548 761.313 283.838C760.943 284.129 760.467 284.274 759.886 284.274C759.374 284.274 758.966 284.126 758.664 283.83C758.363 283.533 758.212 283.152 758.212 282.685C758.212 282.559 758.254 282.312 758.34 281.941C758.425 281.571 758.479 281.34 758.502 281.249C758.696 280.474 758.895 279.563 759.1 278.515C759.431 276.817 759.704 275.142 759.921 273.49C760.137 271.838 760.245 270.551 760.245 269.628C760.245 268.614 760.052 267.791 759.664 267.159C759.277 266.526 758.77 266.21 758.143 266.21C757.437 266.21 756.682 266.543 755.879 267.21C755.076 267.876 754.307 268.802 753.572 269.987C752.837 271.172 752.213 272.499 751.7 273.969C751.404 276.316 751.153 278.731 750.948 281.215C750.857 282.195 750.806 282.707 750.795 282.753C750.738 283.197 750.527 283.562 750.162 283.847C749.798 284.132 749.296 284.274 748.658 284.274C748.203 284.274 747.818 284.123 747.505 283.821C747.191 283.519 747.035 283.152 747.035 282.719C747.035 282.537 747.069 282.28 747.137 281.95C747.206 281.619 747.285 281.266 747.377 280.89C747.491 280.446 747.61 279.922 747.735 279.318C748.032 277.882 748.374 275.832 748.761 273.166C749.148 270.5 749.342 268.751 749.342 267.919C749.342 267.532 749.308 267.008 749.239 266.347C749.194 265.8 749.171 265.418 749.171 265.202C749.171 264.655 749.308 264.225 749.581 263.912C749.855 263.598 750.231 263.442 750.709 263.442C751.427 263.442 751.931 263.686 752.222 264.176C752.512 264.666 752.657 265.39 752.657 266.347C752.657 266.871 752.612 267.532 752.521 268.329C753.489 266.643 754.503 265.384 755.563 264.552C756.622 263.721 757.699 263.305 758.793 263.305C760.183 263.305 761.276 263.786 762.074 264.749C762.871 265.712 763.293 267.087 763.339 268.876C764.353 267.008 765.415 265.612 766.526 264.689C767.637 263.766 768.767 263.305 769.918 263.305Z"/>
</g>
<g fill="#000000" opacity="1" stroke="#000000" stroke-linecap="butt" stroke-linejoin="miter" stroke-width="2">
<path clip-path="url(#TextBounds_3)" d="M687.509 587.376C687.908 590.235 688.267 592.759 688.586 594.947C688.643 595.323 688.742 596.026 688.885 597.057C689.027 598.088 689.127 598.837 689.184 599.304C689.241 599.772 689.269 600.085 689.269 600.244C689.269 600.757 689.101 601.156 688.765 601.441C688.429 601.726 687.971 601.868 687.39 601.868C686.751 601.868 686.25 601.697 685.886 601.355C685.521 601.013 685.339 600.512 685.339 599.851C685.339 598.951 685.174 596.701 684.843 593.101L684.091 593.118C683.203 593.141 682.365 593.152 681.579 593.152C680.508 593.152 679.05 593.181 677.204 593.238L675.871 593.272C674.515 596.724 673.592 599.179 673.102 600.637C672.818 601.458 672.151 601.868 671.103 601.868C670.556 601.868 670.109 601.7 669.761 601.364C669.414 601.028 669.24 600.58 669.24 600.022C669.24 599.817 669.289 599.612 669.385 599.407C669.482 599.202 669.65 598.889 669.89 598.467C670.345 597.692 670.687 597.054 670.915 596.553L672.35 593.306C671.861 593.272 671.456 593.132 671.137 592.887C670.818 592.642 670.659 592.292 670.659 591.836C670.659 591.289 670.801 590.873 671.086 590.589C671.371 590.304 671.747 590.161 672.214 590.161L673.666 590.196L674.828 587.393L675.41 585.991C676.481 583.405 677.332 581.38 677.964 579.916C678.597 578.452 679.317 576.854 680.126 575.122C680.947 573.368 682.154 572.49 683.749 572.49C684.353 572.49 684.857 572.667 685.262 573.02C685.666 573.373 685.897 573.863 685.954 574.49C686.262 577.726 686.78 582.021 687.509 587.376ZM679.904 590.332C681.214 590.332 682.77 590.321 684.57 590.298C684.57 590.207 684.558 590.07 684.536 589.888C684.217 586.504 683.744 581.759 683.117 575.652C682.502 576.985 681.753 578.691 680.87 580.771C679.987 582.85 679.124 584.96 678.281 587.102C678.03 587.718 677.705 588.549 677.307 589.597L677.033 590.298C678.309 590.321 679.266 590.332 679.904 590.332Z"/>
<path clip-path="url(#TextBounds_3)" d="M708.889 580.984C709.401 580.984 709.806 581.138 710.102 581.446C710.398 581.753 710.546 582.095 710.546 582.471C710.546 582.881 710.506 583.311 710.427 583.761C710.347 584.211 710.222 584.829 710.051 585.615C709.891 586.299 709.783 586.806 709.726 587.136C709.475 588.526 709.293 589.623 709.179 590.426C709.065 591.23 708.871 592.748 708.598 594.981C708.04 599.618 707.399 603.167 706.675 605.628C705.952 608.089 704.986 609.849 703.779 610.908C702.571 611.968 700.919 612.498 698.823 612.498C697.752 612.498 696.661 612.253 695.55 611.763C694.439 611.273 693.522 610.612 692.798 609.781C692.075 608.949 691.713 608.06 691.713 607.115C691.713 606.67 691.873 606.266 692.192 605.901C692.511 605.537 692.881 605.354 693.303 605.354C693.633 605.354 693.898 605.397 694.097 605.482C694.297 605.568 694.468 605.702 694.61 605.884C694.752 606.066 694.926 606.345 695.131 606.721C695.541 607.473 696.077 608.171 696.738 608.815C697.398 609.459 698.236 609.781 699.25 609.781C700.423 609.781 701.417 609.299 702.232 608.336C703.047 607.374 703.725 605.901 704.266 603.919C704.807 601.936 705.243 599.361 705.573 596.194C704.73 597.949 703.69 599.361 702.454 600.432C701.218 601.503 699.922 602.039 698.566 602.039C697.404 602.039 696.387 601.723 695.516 601.09C694.644 600.458 693.975 599.558 693.508 598.39C693.041 597.222 692.807 595.852 692.807 594.28C692.807 591.922 693.211 589.717 694.02 587.666C694.829 585.615 695.983 583.975 697.481 582.744C698.979 581.514 700.708 580.899 702.668 580.899C703.579 580.899 704.38 581.072 705.069 581.42C705.758 581.767 706.359 582.294 706.872 583.001C706.952 582.34 707.165 581.839 707.513 581.497C707.86 581.155 708.319 580.984 708.889 580.984ZM698.891 599.151C699.745 599.151 700.648 598.746 701.6 597.937C702.551 597.128 703.428 596.077 704.232 594.784C705.035 593.491 705.653 592.144 706.086 590.742C706.109 590.446 706.131 590.224 706.154 590.076C706.336 588.014 706.49 586.396 706.616 585.222C706.502 585.245 706.411 585.257 706.342 585.257C706.046 585.257 705.767 585.137 705.505 584.898C705.06 584.476 704.63 584.154 704.214 583.932C703.799 583.71 703.312 583.599 702.753 583.599C701.443 583.599 700.261 584.146 699.207 585.24C698.153 586.333 697.333 587.726 696.746 589.418C696.159 591.11 695.866 592.799 695.866 594.485C695.866 595.989 696.128 597.143 696.652 597.946C697.176 598.749 697.923 599.151 698.891 599.151Z"/>
<path clip-path="url(#TextBounds_3)" d="M726.611 595.476C727.066 595.476 727.448 595.627 727.756 595.929C728.063 596.231 728.217 596.599 728.217 597.032C728.217 597.783 727.796 598.55 726.953 599.33C726.109 600.111 725.053 600.757 723.782 601.27C722.512 601.782 721.296 602.039 720.134 602.039C718.721 602.039 717.485 601.731 716.425 601.116C715.366 600.501 714.545 599.615 713.964 598.459C713.383 597.302 713.093 595.938 713.093 594.365C713.093 592.212 713.537 590.093 714.426 588.008C715.314 585.923 716.533 584.217 718.083 582.89C719.632 581.562 721.353 580.899 723.244 580.899C724.406 580.899 725.403 581.124 726.235 581.574C727.066 582.024 727.702 582.662 728.14 583.488C728.579 584.314 728.798 585.285 728.798 586.402C728.798 587.94 728.194 589.273 726.987 590.401C725.779 591.529 724.221 592.394 722.313 592.998C720.404 593.602 718.413 593.933 716.34 593.99L716.34 594.314C716.34 595.909 716.659 597.18 717.297 598.125C717.935 599.071 718.858 599.544 720.065 599.544C720.988 599.544 721.854 599.296 722.663 598.8C723.472 598.305 724.281 597.453 725.09 596.245C725.249 595.995 725.46 595.804 725.722 595.673C725.984 595.542 726.28 595.476 726.611 595.476ZM722.885 583.736C721.883 583.736 720.951 584.109 720.091 584.855C719.231 585.601 718.502 586.578 717.903 587.786C717.305 588.994 716.875 590.281 716.613 591.648C717.98 591.603 719.379 591.341 720.809 590.862C722.239 590.384 723.426 589.74 724.372 588.931C725.318 588.122 725.79 587.233 725.79 586.265C725.79 585.786 725.668 585.356 725.423 584.975C725.178 584.593 724.833 584.291 724.389 584.069C723.945 583.847 723.443 583.736 722.885 583.736Z"/>
<path clip-path="url(#TextBounds_3)" d="M744.025 580.899C745.689 580.899 746.97 581.46 747.87 582.582C748.771 583.704 749.221 585.245 749.221 587.205C749.221 588.185 748.964 590.497 748.452 594.143C748.315 595.146 748.207 596.126 748.127 597.083C748.047 598.04 748.001 598.604 747.99 598.775C747.967 599.173 747.927 599.658 747.87 600.227C747.814 600.751 747.597 601.156 747.221 601.441C746.845 601.726 746.349 601.868 745.734 601.868C745.279 601.868 744.894 601.717 744.581 601.415C744.267 601.113 744.111 600.746 744.111 600.313C744.111 600.187 744.159 599.923 744.256 599.518C744.353 599.114 744.418 598.843 744.453 598.706C744.612 598.114 744.732 597.607 744.811 597.185C745.073 595.875 745.375 594.072 745.717 591.776C746.059 589.481 746.23 587.94 746.23 587.154C746.23 586.06 746.013 585.228 745.58 584.658C745.147 584.089 744.515 583.804 743.683 583.804C742.738 583.804 741.815 584.106 740.915 584.71C740.015 585.314 739.192 586.165 738.445 587.265C737.699 588.364 737.07 589.637 736.557 591.084C736.181 594.092 735.902 596.707 735.72 598.928C735.697 599.27 735.651 599.743 735.583 600.347C735.526 600.791 735.315 601.156 734.951 601.441C734.586 601.726 734.085 601.868 733.447 601.868C732.991 601.868 732.606 601.717 732.293 601.415C731.98 601.113 731.823 600.746 731.823 600.313C731.823 600.062 731.926 599.538 732.131 598.74C732.29 598.205 732.421 597.658 732.524 597.1C732.82 595.698 733.162 593.653 733.549 590.965C733.937 588.276 734.13 586.555 734.13 585.803C734.13 585.291 734.073 584.67 733.959 583.941C733.88 583.439 733.84 583.058 733.84 582.796C733.84 582.249 733.996 581.819 734.31 581.505C734.623 581.192 735.019 581.035 735.497 581.035C735.999 581.035 736.395 581.149 736.685 581.377C736.976 581.605 737.178 581.958 737.292 582.437C737.394 582.904 737.446 583.394 737.446 583.907C737.446 584.214 737.411 584.789 737.343 585.633C739.314 582.477 741.542 580.899 744.025 580.899Z"/>
<path clip-path="url(#TextBounds_3)" d="M766.208 581.121C766.618 581.121 766.937 581.195 767.165 581.343C767.393 581.491 767.507 581.753 767.507 582.129C767.507 582.71 767.259 583.172 766.763 583.513C766.268 583.855 765.672 584.026 764.977 584.026L763.115 584.043C762.83 584.055 762.403 584.06 761.833 584.06L761.286 587.991C760.819 591.352 760.523 593.79 760.397 595.305C760.272 596.821 760.204 598.108 760.192 599.168C760.192 599.692 760.175 600.096 760.141 600.381C760.095 600.837 759.896 601.199 759.543 601.466C759.19 601.734 758.751 601.868 758.227 601.868C757.703 601.868 757.261 601.714 756.902 601.407C756.544 601.099 756.364 600.734 756.364 600.313C756.364 600.142 756.387 599.931 756.432 599.68C756.478 599.43 756.524 599.21 756.569 599.022C756.615 598.834 756.649 598.684 756.672 598.57C756.945 597.442 757.156 596.399 757.304 595.442C757.498 594.212 757.783 592.104 758.159 589.119L758.757 584.214C758.221 584.271 757.771 584.328 757.407 584.385C756.609 584.488 756.017 584.539 755.629 584.539C755.048 584.539 754.578 584.422 754.219 584.188C753.86 583.955 753.681 583.576 753.681 583.052C753.681 582.471 753.841 582.015 754.16 581.685C754.479 581.354 754.917 581.189 755.475 581.189C755.874 581.189 756.301 581.218 756.757 581.275C757.429 581.366 758.193 581.417 759.047 581.428C759.252 579.344 759.366 577.8 759.389 576.797C759.412 576.33 759.429 576.057 759.44 575.977C759.497 575.532 759.699 575.179 760.047 574.917C760.394 574.655 760.847 574.524 761.406 574.524C761.907 574.524 762.326 574.672 762.662 574.969C762.998 575.265 763.166 575.641 763.166 576.096C763.166 576.472 763.023 577.281 762.739 578.523C762.602 579.161 762.534 579.475 762.534 579.463L762.226 581.309L762.739 581.275C762.921 581.263 763.397 581.235 764.166 581.189C764.935 581.144 765.615 581.121 766.208 581.121Z"/>
</g>
<g fill="#000000" opacity="1" stroke="#000000" stroke-linecap="butt" stroke-linejoin="miter" stroke-width="2">
<path clip-path="url(#TextBounds_4)" d="M885.156 849.345C885.737 849.345 886.236 849.471 886.651 849.721C887.067 849.972 887.275 850.388 887.275 850.969C887.275 851.607 887.084 852.088 886.703 852.413C886.321 852.738 885.783 852.9 885.088 852.9C884.837 852.9 884.336 852.866 883.584 852.797C882.775 852.729 882.054 852.672 881.422 852.627C880.79 852.581 879.944 852.552 878.884 852.541C878.565 854.148 878.263 855.791 877.978 857.472C877.693 859.152 877.369 861.473 877.004 864.436C876.651 867.238 876.358 869.733 876.124 871.921C875.89 874.108 875.751 875.59 875.705 876.364C875.683 876.888 875.492 877.307 875.133 877.62C874.774 877.934 874.293 878.09 873.689 878.09C873.119 878.09 872.663 877.925 872.322 877.595C871.98 877.264 871.809 876.837 871.809 876.313C871.809 876.176 871.846 875.909 871.92 875.51C871.994 875.111 872.088 874.65 872.202 874.126C872.521 872.565 872.811 871.069 873.073 869.639C873.336 868.21 873.598 866.526 873.86 864.589C874.76 858.095 875.272 854.073 875.398 852.524L869.929 852.541C869.416 852.541 868.978 852.404 868.613 852.131C868.248 851.857 868.066 851.464 868.066 850.952C868.066 850.45 868.226 850.057 868.545 849.773C868.864 849.488 869.302 849.345 869.861 849.345C870.613 849.345 871.347 849.362 872.065 849.397C873.478 849.465 875.295 849.499 877.517 849.499C879.112 849.499 880.81 849.465 882.61 849.397C882.974 849.385 883.37 849.374 883.797 849.362C884.225 849.351 884.678 849.345 885.156 849.345Z"/>
<path clip-path="url(#TextBounds_4)" d="M897.17 857.121C897.728 857.121 898.181 857.284 898.529 857.608C898.876 857.933 899.05 858.363 899.05 858.899C899.05 859.411 898.899 859.838 898.597 860.18C898.295 860.522 897.899 860.693 897.409 860.693C896.828 860.693 896.367 860.707 896.025 860.736C895.683 860.764 895.33 860.838 894.966 860.958C894.601 861.077 894.225 861.274 893.838 861.547C892.938 862.174 892.075 863.162 891.249 864.513C890.423 865.863 889.776 867.329 889.309 868.913C888.808 872.912 888.557 875.419 888.557 876.433C888.557 876.923 888.369 877.321 887.993 877.629C887.617 877.937 887.133 878.09 886.54 878.09C886.028 878.09 885.606 877.942 885.276 877.646C884.945 877.35 884.78 876.98 884.78 876.535C884.78 876.353 884.814 876.097 884.883 875.766C884.951 875.436 885.031 875.083 885.122 874.707C885.236 874.262 885.355 873.738 885.481 873.134C885.777 871.699 886.119 869.648 886.506 866.982C886.893 864.316 887.087 862.567 887.087 861.735C887.087 861.337 887.053 860.818 886.985 860.18C886.939 859.656 886.916 859.28 886.916 859.052C886.916 858.494 887.059 858.061 887.344 857.753C887.628 857.446 888.033 857.292 888.557 857.292C889.263 857.292 889.747 857.537 890.01 858.027C890.272 858.517 890.403 859.229 890.403 860.163C890.403 860.63 890.34 861.439 890.215 862.59L890.163 863C891.12 861.075 892.2 859.613 893.402 858.617C894.604 857.62 895.86 857.121 897.17 857.121Z"/>
<path clip-path="url(#TextBounds_4)" d="M917.61 858.847C917.61 859.086 917.556 859.434 917.447 859.89C917.339 860.345 917.274 860.613 917.251 860.693C917.046 861.525 916.926 862.043 916.892 862.248C916.596 863.695 916.257 865.774 915.875 868.486C915.493 871.197 915.303 872.963 915.303 873.784C915.303 874.148 915.337 874.615 915.405 875.185C915.473 875.732 915.508 876.148 915.508 876.433C915.508 876.923 915.357 877.321 915.055 877.629C914.753 877.937 914.351 878.09 913.85 878.09C913.189 878.09 912.708 877.86 912.406 877.398C912.104 876.937 911.953 876.324 911.953 875.561C911.953 874.9 911.998 874.148 912.09 873.305C911.247 874.832 910.255 876.04 909.116 876.928C907.977 877.817 906.832 878.261 905.681 878.261C904.439 878.261 903.377 877.954 902.494 877.338C901.611 876.723 900.936 875.815 900.469 874.613C900.001 873.411 899.768 871.949 899.768 870.229C899.768 867.928 900.212 865.769 901.101 863.752C901.99 861.735 903.189 860.126 904.698 858.924C906.208 857.722 907.851 857.121 909.629 857.121C910.54 857.121 911.341 857.295 912.03 857.642C912.719 857.99 913.32 858.517 913.833 859.223C913.924 858.574 914.149 858.084 914.508 857.753C914.867 857.423 915.348 857.258 915.952 857.258C916.408 857.258 916.798 857.412 917.123 857.719C917.447 858.027 917.61 858.403 917.61 858.847ZM905.954 875.373C906.718 875.373 907.555 874.994 908.467 874.237C909.378 873.479 910.235 872.474 911.039 871.22C911.842 869.967 912.477 868.64 912.944 867.238L913.064 866.401C913.326 864.464 913.514 862.806 913.628 861.428C913.525 861.462 913.417 861.479 913.303 861.479C913.007 861.479 912.728 861.359 912.466 861.12C912.021 860.699 911.591 860.377 911.175 860.155C910.759 859.932 910.272 859.821 909.714 859.821C908.552 859.821 907.438 860.323 906.373 861.325C905.308 862.328 904.45 863.649 903.801 865.29C903.152 866.931 902.827 868.645 902.827 870.434C902.827 872.132 903.086 873.379 903.605 874.177C904.123 874.974 904.906 875.373 905.954 875.373Z"/>
<path clip-path="url(#TextBounds_4)" d="M926.325 854.353C925.756 854.353 925.331 854.219 925.052 853.951C924.773 853.683 924.634 853.265 924.634 852.695C924.634 852.49 924.651 852.262 924.685 852.011C924.799 851.225 925.047 850.63 925.428 850.225C925.81 849.821 926.32 849.619 926.958 849.619C927.539 849.619 928.003 849.736 928.351 849.969C928.698 850.203 928.843 850.502 928.786 850.866C928.752 851.083 928.707 851.248 928.65 851.362C928.593 851.476 928.559 851.544 928.547 851.567C928.445 851.726 928.376 851.897 928.342 852.08C928.319 852.182 928.296 852.382 928.274 852.678L928.222 853.276C928.165 853.641 927.986 853.911 927.684 854.088C927.382 854.264 926.929 854.353 926.325 854.353ZM923.489 878.09C922.999 878.09 922.583 877.959 922.241 877.697C921.899 877.435 921.728 877.054 921.728 876.552C921.728 876.313 921.785 875.872 921.899 875.228C922.013 874.584 922.081 874.205 922.104 874.091C922.184 873.67 922.287 873.077 922.412 872.314C922.583 871.186 922.765 869.904 922.959 868.469C923.016 868.093 923.073 867.694 923.13 867.273C923.187 866.851 923.249 866.401 923.318 865.922C923.682 863.359 923.865 861.012 923.865 858.881C923.865 858.357 924.041 857.933 924.394 857.608C924.747 857.284 925.209 857.121 925.779 857.121C926.314 857.121 926.756 857.258 927.103 857.531C927.451 857.805 927.624 858.186 927.624 858.676C927.624 858.984 927.573 859.448 927.47 860.069C927.368 860.69 927.248 861.354 927.112 862.06C927.077 862.254 926.975 862.809 926.804 863.726C926.633 864.644 926.496 865.524 926.394 866.367C926.155 868.247 925.938 870.155 925.744 872.092C925.551 874.029 925.454 875.481 925.454 876.45C925.454 876.906 925.274 877.293 924.916 877.612C924.557 877.931 924.081 878.09 923.489 878.09Z"/>
<path clip-path="url(#TextBounds_4)" d="M943.894 857.121C945.557 857.121 946.839 857.682 947.739 858.805C948.639 859.927 949.089 861.468 949.089 863.427C949.089 864.407 948.833 866.72 948.32 870.366C948.183 871.368 948.075 872.348 947.995 873.305C947.916 874.262 947.87 874.826 947.859 874.997C947.836 875.396 947.796 875.88 947.739 876.45C947.682 876.974 947.466 877.378 947.09 877.663C946.714 877.948 946.218 878.09 945.603 878.09C945.147 878.09 944.763 877.939 944.449 877.638C944.136 877.336 943.979 876.968 943.979 876.535C943.979 876.41 944.028 876.145 944.125 875.741C944.221 875.336 944.287 875.065 944.321 874.929C944.481 874.336 944.6 873.829 944.68 873.408C944.942 872.098 945.244 870.295 945.586 867.999C945.928 865.703 946.098 864.162 946.098 863.376C946.098 862.282 945.882 861.451 945.449 860.881C945.016 860.311 944.384 860.026 943.552 860.026C942.606 860.026 941.684 860.328 940.783 860.932C939.883 861.536 939.06 862.388 938.314 863.487C937.568 864.587 936.938 865.86 936.426 867.307C936.05 870.315 935.77 872.929 935.588 875.151C935.565 875.493 935.52 875.966 935.451 876.569C935.394 877.014 935.184 877.378 934.819 877.663C934.455 877.948 933.953 878.09 933.315 878.09C932.859 878.09 932.475 877.939 932.162 877.638C931.848 877.336 931.692 876.968 931.692 876.535C931.692 876.285 931.794 875.76 931.999 874.963C932.159 874.427 932.29 873.881 932.392 873.322C932.689 871.921 933.03 869.876 933.418 867.187C933.805 864.498 933.999 862.778 933.999 862.026C933.999 861.513 933.942 860.892 933.828 860.163C933.748 859.662 933.708 859.28 933.708 859.018C933.708 858.471 933.865 858.041 934.178 857.728C934.492 857.415 934.887 857.258 935.366 857.258C935.867 857.258 936.263 857.372 936.554 857.6C936.844 857.828 937.046 858.181 937.16 858.659C937.263 859.126 937.314 859.616 937.314 860.129C937.314 860.437 937.28 861.012 937.212 861.855C939.183 858.699 941.41 857.121 943.894 857.121Z"/>
<path clip-path="url(#TextBounds_4)" d="M966.282 871.699C966.737 871.699 967.119 871.85 967.427 872.152C967.734 872.454 967.888 872.821 967.888 873.254C967.888 874.006 967.466 874.772 966.623 875.553C965.78 876.333 964.723 876.98 963.453 877.492C962.183 878.005 960.967 878.261 959.804 878.261C958.392 878.261 957.156 877.954 956.096 877.338C955.036 876.723 954.216 875.837 953.635 874.681C953.054 873.525 952.763 872.16 952.763 870.588C952.763 868.435 953.208 866.315 954.096 864.231C954.985 862.146 956.204 860.439 957.754 859.112C959.303 857.785 961.024 857.121 962.915 857.121C964.077 857.121 965.074 857.346 965.906 857.796C966.737 858.246 967.372 858.884 967.811 859.71C968.25 860.536 968.469 861.508 968.469 862.624C968.469 864.162 967.865 865.495 966.657 866.623C965.45 867.751 963.892 868.617 961.983 869.221C960.075 869.825 958.084 870.155 956.011 870.212L956.011 870.537C956.011 872.132 956.33 873.402 956.968 874.348C957.606 875.293 958.528 875.766 959.736 875.766C960.659 875.766 961.525 875.518 962.334 875.023C963.143 874.527 963.952 873.676 964.761 872.468C964.92 872.217 965.131 872.026 965.393 871.895C965.655 871.764 965.951 871.699 966.282 871.699ZM962.556 859.958C961.553 859.958 960.622 860.331 959.762 861.077C958.902 861.824 958.172 862.801 957.574 864.008C956.976 865.216 956.546 866.503 956.284 867.871C957.651 867.825 959.05 867.563 960.48 867.085C961.909 866.606 963.097 865.962 964.043 865.153C964.988 864.344 965.461 863.456 965.461 862.487C965.461 862.009 965.339 861.579 965.094 861.197C964.849 860.815 964.504 860.513 964.06 860.291C963.615 860.069 963.114 859.958 962.556 859.958Z"/>
<path clip-path="url(#TextBounds_4)" d="M983.764 857.121C984.323 857.121 984.776 857.284 985.123 857.608C985.471 857.933 985.644 858.363 985.644 858.899C985.644 859.411 985.493 859.838 985.191 860.18C984.889 860.522 984.494 860.693 984.004 860.693C983.423 860.693 982.961 860.707 982.619 860.736C982.278 860.764 981.924 860.838 981.56 860.958C981.195 861.077 980.819 861.274 980.432 861.547C979.532 862.174 978.669 863.162 977.843 864.513C977.017 865.863 976.37 867.329 975.903 868.913C975.402 872.912 975.151 875.419 975.151 876.433C975.151 876.923 974.963 877.321 974.587 877.629C974.211 877.937 973.727 878.09 973.135 878.09C972.622 878.09 972.2 877.942 971.87 877.646C971.539 877.35 971.374 876.98 971.374 876.535C971.374 876.353 971.408 876.097 971.477 875.766C971.545 875.436 971.625 875.083 971.716 874.707C971.83 874.262 971.95 873.738 972.075 873.134C972.371 871.699 972.713 869.648 973.1 866.982C973.488 864.316 973.681 862.567 973.681 861.735C973.681 861.337 973.647 860.818 973.579 860.18C973.533 859.656 973.511 859.28 973.511 859.052C973.511 858.494 973.653 858.061 973.938 857.753C974.223 857.446 974.627 857.292 975.151 857.292C975.858 857.292 976.342 857.537 976.604 858.027C976.866 858.517 976.997 859.229 976.997 860.163C976.997 860.63 976.934 861.439 976.809 862.59L976.758 863C977.715 861.075 978.794 859.613 979.996 858.617C981.198 857.62 982.454 857.121 983.764 857.121Z"/>
</g>
</g>
<g id="Layer-6" vectornator:layerName="Layer 6">
<path d="M468.555 536.347C457.126 542.073 424.102 559.233 403.885 575.785C392.141 585.394 393.678 592.39 397.402 609.264L397.737 610.785C401.402 627.462 439.235 736.739 446.663 758.087L469.678 752.88C469.954 741.768 470.525 702.759 466.131 677.636C464.673 669.226 463.195 659.098 461.855 649.919C460.476 640.399 459.136 631.399 458.23 627.14C456.712 620.054 459.215 615.509 466.328 612.378C481.54 605.685 494.643 600.371 501.087 597.812C501.087 597.812 468.555 536.347 468.555 536.347ZM678.859 633.117C668.357 631.954 658.426 630.826 653.677 630.558C645.736 630.11 641.5 626.764 639.982 619.714C636.672 604.648 634.307 591.8 633.184 585.501L559.49 598.617C562.722 610.123 572.712 643.441 585.263 665.397C592.534 678.119 600.377 678.531 619.273 679.515L621.007 679.605C639.726 680.625 765.676 674.845 790.326 673.7L790.583 652.138C778.819 649.114 737.401 638.789 709.519 636.302C700.14 635.514 688.987 634.262 678.859 633.117Z" fill="#d4ab88" fill-rule="nonzero" opacity="1" stroke="none"/>
<path d="M756.77 682.915L753.499 677.439C753.085 676.563 753.558 675.543 754.563 675.239C757.716 674.254 764.08 671.606 766.307 670.55C764.376 674.559 762.169 680.965 759.706 682.897C758.76 683.631 757.263 683.953 756.77 682.915Z" fill="#8899a6" fill-rule="nonzero" opacity="1" stroke="none"/>
<path d="M804.454 640.435C801.893 638.574 796.041 637.662 792.376 637.34C789.834 637.107 783.233 636.928 777.676 637.214C775.174 637.34 772.317 637.626 771.154 637.93C767.509 638.896 765.913 640.274 765.046 641.24C764.001 642.403 763.903 643.638 764.139 644.264C765.105 646.823 769.735 651.243 771.745 655.448C772.415 656.844 772.809 658.222 772.671 659.492C772.179 664.109 765.696 670.819 760.849 675.793C757.932 678.782 755.607 681.143 755.509 682.056C755.41 683.04 755.706 683.881 756.198 684.704L756.198 684.74C757.519 686.941 760.415 689.231 762.386 695.244C763.666 699.127 769.657 716.806 769.657 716.806C771.095 721.315 773.006 722.407 773.814 724.84C775.489 729.797 778.445 743.11 779.903 747.315C781.361 751.52 784.888 753.327 787.587 753.667C790.307 754.007 791.863 753.434 791.863 753.434C791.863 753.434 798.208 750.84 802.405 729.242C805.44 713.639 802.76 711.223 800.474 687.782C798.228 664.305 804.454 640.435 804.454 640.435Z" fill="#be1931" fill-rule="nonzero" opacity="1" stroke="none"/>
<path d="M799.154 675.292C794.839 673.682 784.967 667.777 782.208 661.425C779.706 655.681 778.011 640.167 777.696 637.214C782.996 636.785 791.134 637.107 793.755 637.322C797.203 637.626 801.183 637.876 803.568 639.719L804.474 640.435C804.454 640.435 800.238 665.057 799.154 675.292Z" fill="#dd2e44" fill-rule="nonzero" opacity="1" stroke="none"/>
<path d="M761.243 693.061C759.765 693.061 758.366 692.309 757.676 691.003C756.73 689.214 757.578 687.084 759.548 686.243L765.834 683.541C767.883 682.682 770.169 683.47 771.095 685.241C772.021 687.031 771.193 689.16 769.223 690.001L762.937 692.703C762.386 692.953 761.794 693.061 761.243 693.061ZM765.262 703.511C763.588 703.511 762.051 702.544 761.519 701.023C760.849 699.145 761.992 697.123 764.08 696.532L771.056 694.51C773.026 693.884 775.331 694.94 776.001 696.836C776.671 698.715 775.528 700.737 773.44 701.328L766.464 703.35C766.07 703.457 765.676 703.511 765.262 703.511ZM768.652 714.158C766.799 714.158 765.164 712.994 764.79 711.295C764.376 709.362 765.735 707.465 767.863 707.072L774.405 705.855C776.652 705.443 778.622 706.714 779.055 708.646C779.469 710.579 778.11 712.475 775.982 712.869L769.44 714.086C769.164 714.122 768.908 714.158 768.652 714.158ZM819.686 644.855C819.568 644.372 819.193 642.565 817.814 640.346C817.361 639.594 816.297 639.362 815.233 639.254C813.912 639.093 804.198 637.823 804.021 639.612C804.021 639.612 803.981 642.26 802.602 644.085C801.223 645.911 800.277 650.384 799.922 653.73C799.568 657.058 797.991 669.602 798.346 678.406C798.701 687.209 801.696 703.153 801.853 708.467C801.991 713.782 801.853 722.049 800.612 728.168C799.371 734.288 798.031 739.728 797.006 743.092C795.686 747.422 793.913 750.947 791.883 753.434C791.883 753.434 799.548 752.969 805.42 742.662C810.05 734.539 812.651 726.719 813.617 719.096C813.696 718.524 815.686 698.196 816.651 688.033C817.341 680.607 818.523 668.743 818.523 668.743C820.001 654.679 820.356 647.539 819.686 644.855Z" fill="#ccd6dd" fill-rule="nonzero" opacity="1" stroke="none"/>
<path d="M428.259 732.051L433.107 727.649C433.914 727.041 435.116 727.166 435.747 727.954C437.678 730.423 442.289 735.218 444.042 736.847C439.254 736.31 431.865 736.203 429.126 734.61C428.062 733.984 427.294 732.767 428.259 732.051Z" fill="#8899a6" fill-rule="nonzero" opacity="1" stroke="none"/>
<path d="M486.643 761.504C487.885 758.749 487.175 753.399 486.486 750.106C485.993 747.834 484.318 742.018 482.446 737.276C481.599 735.147 480.495 732.731 479.845 731.801C477.796 728.902 475.885 727.918 474.604 727.435C473.087 726.844 471.747 727.113 471.156 727.506C468.732 729.081 465.363 734.36 461.52 737.312C460.239 738.296 458.9 739.012 457.501 739.262C452.496 740.139 443.57 736.417 436.929 733.59C432.949 731.908 429.796 730.548 428.811 730.727C427.747 730.924 426.939 731.407 426.21 732.069L426.171 732.087L426.19 732.087C424.24 733.859 422.644 737.044 416.85 740.461C413.126 742.662 396.141 752.915 396.141 752.915C391.787 755.438 391.176 757.425 388.851 758.82C384.082 761.683 370.88 768.036 366.841 770.505C362.821 772.974 361.895 776.553 362.309 779.005C362.723 781.456 363.767 782.655 363.767 782.655C363.767 782.655 368.299 787.45 392.299 784.963C409.639 783.174 411.412 780.15 435.53 771.507C459.648 762.864 486.643 761.504 486.643 761.504Z" fill="#be1931" fill-rule="nonzero" opacity="1" stroke="none"/>
<path d="M448.338 766.783C448.811 762.56 452.239 752.307 458.17 748.084C463.51 744.291 479.431 738.386 482.446 737.276C484.417 741.768 486.387 748.943 486.88 751.287C487.53 754.383 488.417 757.908 487.136 760.52L486.643 761.522C486.643 761.504 459.451 764.815 448.338 766.783Z" fill="#dd2e44" fill-rule="nonzero" opacity="1" stroke="none"/>
<path d="M427.215 746.098C426.131 746.098 425.067 745.704 424.279 744.899L419.629 740.193C418.19 738.726 418.328 736.453 419.944 735.147C421.58 733.841 424.023 733.948 425.52 735.433L430.151 740.139C431.589 741.607 431.451 743.879 429.836 745.185C429.067 745.794 428.161 746.098 427.215 746.098ZM416.791 753.363C415.55 753.363 414.289 752.808 413.54 751.788L409.422 746.277C408.2 744.631 408.653 742.412 410.466 741.302C412.22 740.211 414.722 740.604 415.924 742.251L420.043 747.762C421.264 749.408 420.811 751.627 418.998 752.736C418.348 753.166 417.58 753.363 416.791 753.363ZM405.56 759.178C404.161 759.178 402.782 758.498 402.072 757.281L398.939 751.931C397.915 750.178 398.644 748.013 400.575 747.082C402.427 746.152 404.87 746.796 405.915 748.567L409.048 753.917C410.072 755.671 409.343 757.836 407.412 758.767C406.841 759.053 406.19 759.178 405.56 759.178ZM486.308 776.016C486.781 775.784 488.594 774.943 490.545 773.117C491.195 772.509 491.156 771.525 490.978 770.559C490.761 769.36 489.343 760.556 487.412 760.896C487.412 760.896 484.594 761.612 482.289 760.932C479.983 760.252 474.978 760.699 471.353 761.325C467.727 761.97 454.052 764.153 444.85 766.962C435.648 769.771 419.688 776.911 414.112 778.557C408.535 780.186 399.767 782.404 392.949 783.066C386.131 783.728 380.003 784.104 376.181 784.176C371.235 784.247 366.999 783.728 363.806 782.655C363.806 782.655 366.486 789.204 379.018 791.387C388.91 793.123 397.915 793.159 406.23 791.834C406.86 791.727 428.89 787.701 439.885 785.643C447.924 784.14 460.771 781.796 460.771 781.796C476.023 779.094 483.668 777.376 486.308 776.016Z" fill="#ccd6dd" fill-rule="nonzero" opacity="1" stroke="none"/>
<path d="M460.693 534.325C475.234 527.49 523.274 505.91 556.101 502.832C559.096 502.546 586.17 572.689 582.524 573.745C567.49 578.147 529.697 589.796 501.067 603.592C498.032 605.059 494.407 604.379 492.535 601.981C484.042 591.156 462.013 561.595 457.106 540.498C456.535 538.029 458.052 535.56 460.693 534.325Z" fill="#a0041e" fill-rule="nonzero" opacity="1" stroke="none"/>
<path d="M555.234 604.075C551.372 589.849 539.589 543.039 543.687 513.729C544.062 511.045 616.396 501.472 616.396 501.472C619.844 501.096 628.219 556.657 636.199 584.768C637.046 587.738 635.549 590.744 632.633 591.836C619.49 596.756 583.884 609.175 560.85 608.602C558.17 608.531 555.943 606.634 555.234 604.075Z" fill="#be1931" fill-rule="nonzero" opacity="1" stroke="none"/>
<path d="M494.525 351.433C492.279 362.885 499.628 377.039 528.771 382.586C557.914 388.133 579.096 387.471 594.268 386.487C607.135 385.646 605.362 403.522 608.278 422.238C611.194 441.027 613.027 465.524 611.864 469.353C609.894 475.812 597.638 477.924 603.214 489.447C608.79 500.953 609.697 507.252 621.776 503.584C633.854 499.915 645.854 495.943 649.283 490.002C652.711 484.061 640.81 470.945 640.633 463.824C640.495 458.563 646.406 392.75 646.051 385.002C645.618 375.554 645.362 362.616 628.633 356.694C611.904 350.771 547.687 335.686 530.663 332.68C512.692 329.513 497.5 336.241 494.525 351.433Z" fill="#d4ab88" fill-rule="nonzero" opacity="1" stroke="none"/>
<path d="M527.904 268.531C534.012 261.356 538.663 252.928 540.929 242.495C548.988 205.223 525.283 169.614 487.963 162.976C450.663 156.319 399.629 181.388 400.772 219.359C401.895 257.061 424.988 312.657 459.747 303.281C468.929 300.811 478.111 298.091 486.84 294.799C490.564 298.807 493.244 314.142 491.707 327.276C487.766 360.738 538.623 364.227 542.525 330.712C545.618 304.193 527.392 287.337 527.904 268.531Z" fill="#d4ab88" fill-rule="nonzero" opacity="1" stroke="none"/>
<path d="M589.559 345.957C575.214 315.484 554.426 299.487 525.934 308.13C500.614 315.824 488.062 328.726 480.594 343.202C476.968 350.234 462.84 377.79 471.412 395.684C488.18 430.684 515.609 500.595 520.436 521.996C520.436 521.996 526.781 527.83 567.786 523.141C603.707 519.026 621.618 515.912 621.618 515.912C616.16 469.496 612.712 395.183 589.559 345.957Z" fill="#dd2e44" fill-rule="nonzero" opacity="1" stroke="none"/>
<path d="M541.835 348.248C530.466 341.591 512.298 342.325 494.466 365.837C476.633 389.35 468.693 408.353 463.569 422.167C459.215 433.887 440.772 425.03 419.511 419.984C398.171 414.902 371.136 406.528 367.511 403.933C361.383 399.549 364.122 387.865 349.501 388.079C334.88 388.312 327.767 386.54 326.782 398.726C325.797 410.912 325.147 423.133 330.132 428.591C335.117 434.048 354.013 428.877 361.737 431.615C367.432 433.637 435.609 465.702 444.062 468.548C454.387 472.019 468.358 477.065 481.52 464.683C494.683 452.3 537.067 401.661 547.234 387.811C557.933 373.245 556.909 357.069 541.835 348.248Z" fill="#d4ab88" fill-rule="nonzero" opacity="1" stroke="none"/>
</g>
<g id="Layer-2" vectornator:layerName="Layer 2">
<path d="M566.967 198.111C566.967 187.172 573.778 178.303 582.179 178.303C590.581 178.303 597.391 187.172 597.391 198.111C597.391 209.05 590.581 217.918 582.179 217.918C573.778 217.918 566.967 209.05 566.967 198.111Z" fill="#f4900c" fill-rule="nonzero" opacity="1" stroke="none"/>
<path d="M378.341 198.111C378.341 187.172 385.152 178.303 393.553 178.303C401.954 178.303 408.765 187.172 408.765 198.111C408.765 209.05 401.954 217.918 393.553 217.918C385.152 217.918 378.341 209.05 378.341 198.111Z" fill="#f4900c" fill-rule="nonzero" opacity="1" stroke="none"/>
<path d="M585.222 223.578C585.222 226.707 582.502 229.237 579.137 229.237L560.883 229.237C557.518 229.237 554.798 226.707 554.798 223.578L554.798 172.644C554.798 169.52 557.518 166.985 560.883 166.985L579.137 166.985C582.502 166.985 585.222 169.52 585.222 172.644L585.222 223.578ZM420.934 223.578C420.934 226.707 418.208 229.237 414.849 229.237L396.595 229.237C393.237 229.237 390.511 226.707 390.511 223.578L390.511 172.644C390.511 169.52 393.237 166.985 396.595 166.985L414.849 166.985C418.208 166.985 420.934 169.52 420.934 172.644L420.934 223.578Z" fill="#ffac33" fill-rule="nonzero" opacity="1" stroke="none"/>
<path d="M548.713 144.348C548.713 159.973 521.466 166.985 487.866 166.985C454.26 166.985 427.019 159.973 427.019 144.348C427.019 128.723 454.26 116.052 487.866 116.052C521.466 116.052 548.713 128.723 548.713 144.348Z" fill="#ffcc4d" fill-rule="nonzero" opacity="1" stroke="none"/>
<path d="M530.459 139.158C530.459 148.275 511.384 155.666 487.866 155.666C464.343 155.666 445.273 148.275 445.273 139.158C445.273 130.041 464.343 122.65 487.866 122.65C511.384 122.65 530.459 130.041 530.459 139.158Z" fill="#f4900c" fill-rule="nonzero" opacity="1" stroke="none"/>
<path d="M560.883 147.178C560.883 154.993 554.074 155.666 545.671 155.666L430.061 155.666C421.658 155.666 414.849 154.993 414.849 147.178C414.849 139.362 421.658 133.029 430.061 133.029L545.671 133.029C554.074 133.029 560.883 139.362 560.883 147.178Z" fill="#226699" fill-rule="nonzero" opacity="1" stroke="none"/>
<path d="M560.883 150.007L414.849 150.007C408.132 150.007 402.68 155.078 402.68 161.326L402.68 308.466L573.052 308.466L573.052 161.326C573.052 155.078 567.6 150.007 560.883 150.007Z" fill="#55acee" fill-rule="nonzero" opacity="1" stroke="none"/>
<path d="M591.306 302.807L591.306 297.148C591.306 290.9 585.854 285.829 579.137 285.829L512.637 285.829L492.168 304.867C489.789 307.08 485.943 307.08 483.564 304.867L463.095 285.829L396.595 285.829C389.878 285.829 384.426 290.9 384.426 297.148L384.426 302.807C384.426 309.055 383.793 314.126 390.511 314.126L585.222 314.126C591.939 314.126 591.306 309.055 591.306 302.807Z" fill="#3b88c3" fill-rule="nonzero" opacity="1" stroke="none"/>
<path d="M500.036 198.111C500.036 184.046 512.295 172.644 527.417 172.644C542.539 172.644 554.798 184.046 554.798 198.111C554.798 212.176 542.539 223.578 527.417 223.578C512.295 223.578 500.036 212.176 500.036 198.111Z" fill="#ffffff" fill-rule="nonzero" opacity="1" stroke="none"/>
<path d="M510.86 198.111C510.86 189.606 518.273 182.712 527.417 182.712C536.561 182.712 543.973 189.606 543.973 198.111C543.973 206.615 536.561 213.51 527.417 213.51C518.273 213.51 510.86 206.615 510.86 198.111Z" fill="#dd2e44" fill-rule="nonzero" opacity="1" stroke="none"/>
<path d="M420.934 198.111C420.934 184.046 433.193 172.644 448.315 172.644C463.438 172.644 475.697 184.046 475.697 198.111C475.697 212.176 463.438 223.578 448.315 223.578C433.193 223.578 420.934 212.176 420.934 198.111Z" fill="#ffffff" fill-rule="nonzero" opacity="1" stroke="none"/>
<path d="M554.798 260.363C554.798 268.178 547.989 274.511 539.586 274.511L436.146 274.511C427.743 274.511 420.934 268.178 420.934 260.363C420.934 252.547 427.743 246.215 436.146 246.215L539.586 246.215C547.989 246.215 554.798 252.547 554.798 260.363Z" fill="#f5f8fa" fill-rule="nonzero" opacity="1" stroke="none"/>
<path d="M481.781 246.215L493.951 246.215L493.951 274.511L481.781 274.511L481.781 246.215ZM451.358 246.215L463.527 246.215L463.527 274.511L451.358 274.511L451.358 246.215ZM512.205 246.215L524.374 246.215L524.374 274.511L512.205 274.511L512.205 246.215ZM420.934 260.363C420.934 267.21 426.161 272.915 433.104 274.228L433.104 246.497C426.161 247.81 420.934 253.515 420.934 260.363ZM542.629 246.497L542.629 274.222C549.571 272.909 554.798 267.205 554.798 260.357C554.798 253.509 549.571 247.81 542.629 246.497Z" fill="#ccd6dd" fill-rule="nonzero" opacity="1" stroke="none"/>
<path d="M431.759 198.111C431.759 189.606 439.172 182.712 448.315 182.712C457.459 182.712 464.872 189.606 464.872 198.111C464.872 206.615 457.459 213.51 448.315 213.51C439.172 213.51 431.759 206.615 431.759 198.111Z" fill="#dd2e44" fill-rule="nonzero" opacity="1" stroke="none"/>
</g>
<g id="Layer-3" vectornator:layerName="Layer 3">
<path d="M533.492 153.252C533.504 154.238 533.211 155.528 532.906 156.592C530.776 164.071 521.316 172.463 508.001 171.7C495.933 171.009 486.104 165.975 486.104 158.914C486.104 151.853 495.909 146.128 508.001 146.128C520.092 146.128 533.416 146.191 533.492 153.252Z" fill="#ea596e" fill-rule="nonzero" opacity="1" stroke="none"/>
<path d="M508.001 147.314C501.505 147.314 486.682 148.876 483.28 148.876C477.27 148.876 472.395 152.153 472.395 156.198C472.395 158.143 473.543 159.901 475.38 161.212C475.38 161.212 479.416 164.73 486.686 163.042C489.867 162.303 495.042 156.815 504.153 155.943C508.691 155.507 517.192 158.558 532.132 158.632C532.774 157.432 532.906 156.599 532.906 156.599C532.906 149.531 520.092 147.314 508.001 147.314Z" fill="#dd2e44" fill-rule="nonzero" opacity="1" stroke="none"/>
<path d="M532.906 156.592C532.906 156.592 541.668 155.047 547.116 148.82C553.467 141.557 552.632 133.785 552.632 133.785C559.067 123.325 550.626 113.517 550.626 113.517C549.788 102.475 541.933 97.9001 541.933 97.9001C536.834 87.3667 525.552 84.5355 525.552 84.5355C516.694 75.5294 500.98 75.8188 500.98 75.8188C500.98 75.8188 486.256 71.1291 466.045 76.401C462.703 77.2727 451.502 79.3055 443.31 83.6639C417.489 97.4015 415.536 118.824 415.897 122.307C417.899 141.773 433.613 145.26 443.643 147.293C445.982 152.812 454.591 162.983 470.053 159.207C489.109 156.302 497.133 151.362 501.814 151.362C506.496 151.362 519.535 155.72 532.906 156.592Z" fill="#f4abba" fill-rule="nonzero" opacity="1" stroke="none"/>
<g opacity="1">
<path d="M484.712 125.292C494.051 120.916 499.114 121.324 503.584 121.676C505.004 121.788 506.348 121.875 507.708 121.868C515.667 121.711 522.114 118.796 524.967 115.975C525.697 115.25 525.613 114.152 524.782 113.514C523.956 112.879 522.692 112.945 521.95 113.67C519.751 115.846 514.331 118.249 507.615 118.381C506.412 118.412 505.204 118.308 503.953 118.207C499.158 117.82 493.205 117.345 482.806 122.223C480.138 123.475 476.48 123.939 472.516 124.287C463.702 113.231 469.005 103.601 470.522 101.307C470.67 101.314 470.815 101.355 470.967 101.355C472.572 101.355 474.185 101.014 475.645 100.295C476.608 99.8213 476.949 98.7578 476.403 97.921C475.858 97.0842 474.634 96.7878 473.671 97.262C471.104 98.5242 467.726 97.7955 466.129 95.6337C465.531 94.8213 464.292 94.5842 463.361 95.1072C462.43 95.6267 462.157 96.7041 462.755 97.5131C463.706 98.8066 465.046 99.7794 466.558 100.431C464.468 104.12 460.5 113.82 468.051 124.668C462.739 125.121 457.419 125.773 453.255 128.105C450.567 129.612 447.819 131.815 445.721 134.35C443.197 133.974 433.958 131.997 432.345 123.085C433.348 122.408 434.159 121.516 434.66 120.414C435.069 119.518 434.564 118.507 433.533 118.151C432.502 117.795 431.338 118.235 430.929 119.131C430.572 119.915 429.926 120.487 429.108 120.738C428.297 120.989 427.379 120.905 426.528 120.494C425.553 120.023 424.338 120.334 423.8 121.17C423.262 122.011 423.611 123.074 424.578 123.541C425.718 124.092 426.937 124.371 428.149 124.371C428.297 124.371 428.438 124.312 428.586 124.305C430.496 132.718 438.146 136.414 443.558 137.533C442.852 138.886 442.375 140.281 442.23 141.69C442.134 142.645 442.949 143.496 444.052 143.579L444.232 143.586C445.259 143.586 446.138 142.906 446.23 141.996C446.664 137.767 451.305 133.349 455.429 131.031C459.297 128.866 464.958 128.409 470.438 127.966C475.753 127.544 480.776 127.14 484.712 125.292ZM536.328 120.048C535.803 120.891 536.164 121.951 537.131 122.408C537.435 122.555 537.768 122.624 538.093 122.624C538.8 122.624 539.486 122.3 539.851 121.721C539.927 121.603 547.24 109.696 533.548 101.694C532.633 101.164 531.386 101.369 530.764 102.168C530.146 102.966 530.391 104.051 531.309 104.588C541.917 110.787 536.561 119.671 536.328 120.048ZM453.175 91.896C453.801 91.896 454.414 91.6449 454.804 91.1707C460.621 84.138 468.677 86.5439 469.018 86.6554C470.057 86.9832 471.2 86.523 471.585 85.6234C471.97 84.7203 471.441 83.7196 470.402 83.3849C466.55 82.1437 457.656 81.7531 451.546 89.138C450.9 89.9155 451.105 91.0069 452.003 91.5682C452.36 91.7914 452.77 91.896 453.175 91.896ZM505.618 85.3131C514.544 84.682 518.604 90.306 518.788 90.571C519.166 91.1219 519.832 91.4288 520.518 91.4288C520.863 91.4288 521.216 91.352 521.533 91.1882C522.487 90.7 522.808 89.6331 522.251 88.8033C522.034 88.486 516.875 81.0697 505.305 81.8368C504.201 81.91 503.379 82.7503 503.463 83.7127C503.551 84.6715 504.55 85.4002 505.618 85.3131ZM542.326 136.257C541.339 136.209 540.252 136.888 540.164 137.851C540.156 137.914 539.518 143.844 532.501 145.849C531.45 146.149 530.876 147.132 531.225 148.049C531.498 148.782 532.288 149.249 533.131 149.249C533.339 149.249 533.548 149.221 533.757 149.162C543.273 146.449 544.131 138.478 544.163 138.14C544.248 137.178 543.429 136.334 542.326 136.257Z" fill="#ea596e" fill-rule="nonzero" opacity="1" stroke="none"/>
<path d="M443.029 119.315C442.74 120.246 443.374 121.202 444.445 121.453C444.617 121.495 444.794 121.512 444.967 121.512C445.853 121.512 446.66 121 446.9 120.222C447.662 117.743 450.619 116.153 453.528 116.686C454.615 116.878 455.674 116.282 455.903 115.337C456.131 114.396 455.437 113.472 454.35 113.273C452.641 112.959 450.924 113.106 449.343 113.573C444.666 106.62 445.576 99.7655 445.588 99.6922C445.733 98.7404 444.963 97.8652 443.867 97.7327C442.776 97.6177 441.765 98.2697 441.613 99.2215C441.56 99.5598 440.489 107.297 445.877 115.309C444.537 116.359 443.518 117.729 443.029 119.315ZM487.877 110.703C489.51 109.389 492.13 109.413 493.714 110.756C494.108 111.083 494.609 111.247 495.115 111.247C495.64 111.247 496.162 111.069 496.551 110.717C497.321 110.027 497.305 108.922 496.511 108.252C495.588 107.475 494.485 106.955 493.313 106.631C494.501 103.088 494.031 101.516 492.928 98.5695C492.736 98.057 492.523 97.4852 492.298 96.8331L492.178 96.4845C490.718 92.2725 489.751 89.4936 492.527 85.5711C493.109 84.7517 492.812 83.6778 491.869 83.1722C490.942 82.6701 489.695 82.9177 489.109 83.744C485.386 89.002 486.754 92.9385 488.339 97.4956L488.459 97.8443C488.696 98.5207 488.912 99.1135 489.113 99.6469C490.104 102.3 490.405 103.189 489.193 106.397C487.713 106.638 486.297 107.22 485.141 108.154C484.331 108.81 484.287 109.915 485.041 110.62C485.799 111.324 487.071 111.359 487.877 110.703ZM513.413 100.295C514.58 100.295 515.759 100.083 516.859 99.6295C517.862 99.2181 518.291 98.179 517.818 97.3073C517.348 96.4357 516.137 96.073 515.15 96.474C513.136 97.2969 510.652 96.5821 509.597 94.8806C509.072 94.0298 507.848 93.7195 506.881 94.1658C505.906 94.6191 505.537 95.679 506.063 96.5263C506.785 97.6979 507.86 98.6218 509.112 99.2634C506.958 103.814 508.181 108.646 509.18 111.209C509.461 111.938 510.243 112.394 511.082 112.394C511.294 112.394 511.507 112.366 511.724 112.304C512.775 111.997 513.336 111.007 512.979 110.097C512.305 108.36 510.997 103.974 512.971 100.243C513.124 100.25 513.264 100.295 513.413 100.295ZM532.657 133.172C532.581 132.213 531.626 131.456 530.527 131.543C526.459 131.794 522.993 129.113 522.716 125.605C522.636 124.647 521.653 123.932 520.578 123.984C519.474 124.05 518.64 124.884 518.712 125.843C518.877 127.9 519.779 129.755 521.151 131.264C517.926 134.563 513.701 135.501 511.346 135.741C509.264 135.957 507.443 135.773 505.337 135.557C503.407 135.365 501.225 135.145 498.525 135.215L498.505 135.218C498.424 134.221 498.152 132.767 497.281 131.557C496.695 130.745 495.456 130.497 494.517 131.006C493.582 131.515 493.293 132.593 493.883 133.409C494.42 134.158 494.521 135.354 494.521 135.937C492.499 136.568 490.75 137.495 489.169 138.391C486.345 139.988 484.118 141.25 480.768 140.595C477.735 139.992 474.698 139.87 472.123 140.183C471.721 139.308 471.088 138.262 470.109 137.457C469.302 136.794 468.035 136.822 467.272 137.527C466.514 138.224 466.546 139.329 467.353 139.992C467.698 140.274 467.97 140.685 468.191 141.097C463.766 142.68 461.547 145.326 461.443 145.455C460.801 146.236 461.014 147.314 461.905 147.875C462.258 148.095 462.667 148.203 463.076 148.203C463.698 148.203 464.312 147.955 464.705 147.488C464.725 147.46 466.927 144.897 471.272 143.862C473.519 143.325 476.74 143.37 479.882 143.991C480.76 144.165 481.575 144.224 482.365 144.235C482.738 144.995 482.882 145.898 482.902 146.233C482.967 147.16 483.849 147.879 484.904 147.879L485.013 147.875C486.116 147.823 486.962 147.01 486.91 146.052C486.898 145.877 486.818 144.845 486.389 143.66C488.238 143.077 489.847 142.167 491.359 141.313C493.654 140.013 495.825 138.782 498.661 138.702C501.036 138.628 502.994 138.827 504.883 139.019C506.785 139.211 508.655 139.336 510.717 139.232C511.082 140.114 511.054 141.292 510.997 141.686C510.865 142.638 511.639 143.51 512.739 143.635C512.823 143.646 512.907 143.649 512.991 143.649C513.982 143.649 514.845 143.011 514.977 142.132C515.009 141.916 515.214 140.347 514.74 138.712C517.621 138.039 521.192 136.578 524.148 133.583C525.877 134.504 527.895 135.044 530.042 135.044C530.29 135.044 530.543 135.037 530.792 135.023C531.895 134.96 532.73 134.134 532.657 133.172Z" fill="#ea596e" fill-rule="nonzero" opacity="1" stroke="none"/>
</g>
</g>
<g id="Layer-4" vectornator:layerName="Layer 4">
<path d="M318.582 803.817L800.841 826.244L800.841 859.884L318.582 859.884L318.582 803.817Z" fill="#c1dff7" fill-rule="nonzero" opacity="1" stroke="none"/>
<path d="M511.486 433.774L511.486 467.414L258.3 467.414L294.469 433.774L511.486 433.774Z" fill="#c1dff7" fill-rule="nonzero" opacity="1" stroke="none"/>
<path d="M583.824 433.774L511.486 433.774L511.486 433.774L511.486 467.414L511.486 467.414L583.824 467.414L583.824 467.414L583.824 433.774L583.824 433.774Z" fill="#6a9fd3" fill-rule="nonzero" opacity="1" stroke="none"/>
<path d="M318.582 781.39L318.582 859.884L812.897 859.884L812.897 904.738L113.622 904.738L113.622 815.03C113.685 790.498 130.942 768.872 156.17 761.711L156.17 761.711L198.018 411.347L113.622 332.853L161.848 287.999L306.526 422.56L294.469 433.774L258.3 467.414L216.922 765.691L318.582 781.39Z" fill="#6a9fd3" fill-rule="nonzero" opacity="1" stroke="none"/>
<path d="M776.728 927.165L644.107 927.165L644.107 927.165L644.107 949.592L644.107 949.592L776.728 949.592L776.728 949.592L776.728 927.165L776.728 927.165Z" fill="#000000" fill-rule="nonzero" opacity="1" stroke="none"/>
<path d="M282.413 927.165L149.792 927.165L149.792 927.165L149.792 949.592L149.792 949.592L282.413 949.592L282.413 949.592L282.413 927.165L282.413 927.165Z" fill="#000000" fill-rule="nonzero" opacity="1" stroke="none"/>
<path d="M105.098 340.781C100.392 336.402 100.392 329.304 105.098 324.925L153.324 280.071C158.032 275.694 165.664 275.694 170.372 280.071L315.05 414.632C317.311 416.735 318.582 419.587 318.582 422.56L583.824 422.56C590.483 422.56 595.881 427.581 595.881 433.774L595.881 467.414C595.881 473.607 590.483 478.627 583.824 478.627L268.898 478.627L230.317 756.351L320.523 770.334C326.351 771.218 330.633 775.898 330.639 781.39L330.639 793.153L801.443 815.03C807.866 815.329 812.905 820.263 812.897 826.244L812.897 848.671C819.556 848.671 824.954 853.691 824.954 859.884L824.954 904.738C824.954 910.931 819.556 915.951 812.897 915.951L113.622 915.951C106.964 915.951 101.566 910.931 101.566 904.738L101.566 815.03C101.583 788.281 118.618 764.075 144.969 753.357L185.394 415.462L105.098 340.781ZM161.848 303.855L130.67 332.853L206.542 403.419L258.3 451.558L285.945 425.846L289.478 422.56L161.848 303.855ZM571.768 444.987L523.542 444.987L523.542 456.201L571.768 456.201L571.768 444.987ZM499.429 456.201L499.429 444.987L299.461 444.987L287.404 456.201L499.429 456.201ZM788.784 836.908L330.639 815.602L330.639 848.671L788.784 848.671L788.784 836.908ZM125.679 893.524L800.841 893.524L800.841 871.098L125.679 871.098L125.679 893.524ZM125.679 815.03L125.679 848.671L306.526 848.671L306.526 790.888L172.964 770.177C146.698 770.653 125.674 790.596 125.679 815.03ZM169.938 747.94C171.252 747.873 172.566 747.75 173.905 747.75C174.571 747.746 175.237 747.799 175.894 747.907L206.566 752.661L245.58 471.44L207.229 435.77L169.938 747.94Z" fill="#000000" fill-rule="nonzero" opacity="1" stroke="none"/>
</g>
<g id="Layer-5" vectornator:layerName="Layer 5" visibility="hidden">
<path d="M409.577 714.962L719.032 730.435L719.032 753.644L409.577 753.644L409.577 714.962Z" fill="#c1dff7" fill-rule="nonzero" opacity="1" stroke="none"/>
<path d="M533.359 459.662L533.359 482.871L370.896 482.871L394.105 459.662L533.359 459.662Z" fill="#c1dff7" fill-rule="nonzero" opacity="1" stroke="none"/>
<path d="M579.778 459.662L533.359 459.662L533.359 459.662L533.359 482.871L533.359 482.871L579.778 482.871L579.778 482.871L579.778 459.662L579.778 459.662Z" fill="#6a9fd3" fill-rule="nonzero" opacity="1" stroke="none"/>
<path d="M409.577 699.49L409.577 753.644L726.769 753.644L726.769 784.59L278.059 784.59L278.059 722.699C278.099 705.774 289.173 690.853 305.361 685.912L305.361 685.912L332.214 444.189L278.059 390.035L309.005 359.089L401.841 451.926L394.105 459.662L370.896 482.871L344.344 688.659L409.577 699.49Z" fill="#6a9fd3" fill-rule="nonzero" opacity="1" stroke="none"/>
</g>
<g id="Layer-7" vectornator:layerName="Layer 7" visibility="hidden">
<path d="M267.807 660.722L349.852 670.977L319.085 435.097L319.085 404.33L267.807 383.818L267.807 394.074L267.807 660.722Z" fill="#b9b9b9" fill-rule="nonzero" opacity="1" stroke="none"/>
<path d="M319.085 435.097L320.418 445.352L267.807 445.352L267.807 394.074L267.807 383.818L319.085 404.33L319.085 435.097Z" fill="#a8a8a8" fill-rule="nonzero" opacity="1" stroke="none"/>
<path d="M411.392 441.398L263.835 348.534L263.835 348.534L241.985 383.254L241.985 383.254L389.542 476.118L389.542 476.118L411.392 441.398L411.392 441.398Z" fill="#d9d9d9" fill-rule="nonzero" opacity="1" stroke="none"/>
<path d="M349.852 670.977L267.807 660.722L267.807 650.466L347.175 650.466L349.852 670.977Z" fill="#a8a8a8" fill-rule="nonzero" opacity="1" stroke="none"/>
<path d="M401.13 670.977L401.13 835.068L226.784 835.068L226.784 650.466L401.13 670.977Z" fill="#428dc5" fill-rule="nonzero" opacity="1" stroke="none"/>
<path d="M760.079 712L349.852 712C315.868 712 288.318 739.55 288.318 773.534L288.318 773.534C288.318 807.518 315.868 835.068 349.852 835.068L760.079 835.068C794.064 835.068 821.613 807.518 821.613 773.534L821.613 773.534C821.613 739.55 794.064 712 760.079 712Z" fill="#4799cf" fill-rule="nonzero" opacity="1" stroke="none"/>
<path d="M760.079 753.023L349.852 753.023C338.524 753.023 329.341 762.206 329.341 773.534L329.341 773.534C329.341 784.862 338.524 794.045 349.852 794.045L760.079 794.045C771.407 794.045 780.591 784.862 780.591 773.534L780.591 773.534C780.591 762.206 771.407 753.023 760.079 753.023Z" fill="#a8a8a8" fill-rule="nonzero" opacity="1" stroke="none"/>
<path d="M534.454 773.534C534.454 762.206 525.271 753.023 513.943 753.023C502.615 753.023 493.431 762.206 493.431 773.534C493.431 784.862 502.615 794.045 513.943 794.045C525.271 794.045 534.454 784.862 534.454 773.534Z" fill="#d9d9d9" fill-rule="nonzero" opacity="1" stroke="none"/>
<path d="M452.409 773.534C452.409 762.206 443.226 753.023 431.897 753.023C420.569 753.023 411.386 762.206 411.386 773.534C411.386 784.862 420.569 794.045 431.897 794.045C443.226 794.045 452.409 784.862 452.409 773.534Z" fill="#d9d9d9" fill-rule="nonzero" opacity="1" stroke="none"/>
<path d="M370.363 773.534C370.363 762.206 361.18 753.023 349.852 753.023C338.524 753.023 329.341 762.206 329.341 773.534C329.341 784.862 338.524 794.045 349.852 794.045C361.18 794.045 370.363 784.862 370.363 773.534Z" fill="#d9d9d9" fill-rule="nonzero" opacity="1" stroke="none"/>
<path d="M780.591 773.534C780.591 762.206 771.407 753.023 760.079 753.023C748.751 753.023 739.568 762.206 739.568 773.534C739.568 784.862 748.751 794.045 760.079 794.045C771.407 794.045 780.591 784.862 780.591 773.534Z" fill="#d9d9d9" fill-rule="nonzero" opacity="1" stroke="none"/>
<path d="M698.545 773.534C698.545 762.206 689.362 753.023 678.034 753.023C666.706 753.023 657.522 762.206 657.522 773.534C657.522 784.862 666.706 794.045 678.034 794.045C689.362 794.045 698.545 784.862 698.545 773.534Z" fill="#d9d9d9" fill-rule="nonzero" opacity="1" stroke="none"/>
<path d="M616.5 773.534C616.5 762.206 607.316 753.023 595.988 753.023C584.66 753.023 575.477 762.206 575.477 773.534C575.477 784.862 584.66 794.045 595.988 794.045C607.316 794.045 616.5 784.862 616.5 773.534Z" fill="#d9d9d9" fill-rule="nonzero" opacity="1" stroke="none"/>
<path d="M554.966 712L483.176 712" fill="#aae5c8" fill-rule="nonzero" opacity="1" stroke="none"/>
<path d="M319.085 773.534C319.085 756.542 332.86 742.767 349.852 742.767L760.079 742.767C777.071 742.767 790.846 756.542 790.846 773.534C790.846 790.526 777.071 804.301 760.079 804.301L349.852 804.301C332.86 804.301 319.085 790.526 319.085 773.534ZM688.289 773.534C688.289 767.87 683.698 763.278 678.034 763.278C672.37 763.278 667.778 767.87 667.778 773.534C667.778 779.198 672.37 783.79 678.034 783.79C683.698 783.79 688.289 779.198 688.289 773.534ZM706.914 783.79L731.199 783.79C728.683 777.184 728.683 769.884 731.199 763.278L706.914 763.278C709.43 769.884 709.43 777.184 706.914 783.79ZM649.154 763.278L624.868 763.278C627.385 769.884 627.385 777.184 624.868 783.79L649.154 783.79C646.637 777.184 646.637 769.884 649.154 763.278ZM606.244 773.534C606.244 767.87 601.652 763.278 595.988 763.278C590.324 763.278 585.733 767.87 585.733 773.534C585.733 779.198 590.324 783.79 595.988 783.79C601.652 783.79 606.244 779.198 606.244 773.534ZM567.108 763.278L542.823 763.278C545.339 769.884 545.339 777.184 542.823 783.79L567.108 783.79C564.592 777.184 564.592 769.884 567.108 763.278ZM524.199 773.534C524.199 767.87 519.607 763.278 513.943 763.278C508.279 763.278 503.687 767.87 503.687 773.534C503.687 779.198 508.279 783.79 513.943 783.79C519.607 783.79 524.199 779.198 524.199 773.534ZM485.063 763.278L460.777 763.278C463.294 769.884 463.294 777.184 460.777 783.79L485.063 783.79C482.546 777.184 482.546 769.884 485.063 763.278ZM442.153 773.534C442.153 767.87 437.561 763.278 431.897 763.278C426.233 763.278 421.642 767.87 421.642 773.534C421.642 779.198 426.233 783.79 431.897 783.79C437.561 783.79 442.153 779.198 442.153 773.534ZM403.017 763.278L378.732 763.278C381.248 769.884 381.248 777.184 378.732 783.79L403.017 783.79C400.501 777.184 400.501 769.884 403.017 763.278ZM339.596 773.534C339.596 779.198 344.188 783.79 349.852 783.79C355.516 783.79 360.108 779.198 360.108 773.534C360.108 767.87 355.516 763.278 349.852 763.278C344.188 763.278 339.596 767.87 339.596 773.534ZM770.335 773.534C770.335 767.87 765.743 763.278 760.079 763.278C754.415 763.278 749.824 767.87 749.824 773.534C749.824 779.198 754.415 783.79 760.079 783.79C765.743 783.79 770.335 779.198 770.335 773.534Z" fill="#000000" fill-rule="nonzero" opacity="1" stroke="none"/>
</g>
<g id="Layer-8" vectornator:layerName="Layer 8" visibility="hidden">
<path d="M625.663 826.178L663.19 826.178C668.37 826.178 672.575 821.973 672.575 816.806C672.575 811.612 668.37 807.407 663.19 807.407L625.663 807.407C620.483 807.407 616.292 811.612 616.292 816.806C616.292 821.973 620.483 826.178 625.663 826.178ZM325.492 826.178L363.018 826.178C368.198 826.178 372.403 821.973 372.403 816.806C372.403 811.612 368.198 807.407 363.018 807.407L325.492 807.407C320.311 807.407 316.121 811.612 316.121 816.806C316.121 821.973 320.311 826.178 325.492 826.178ZM269.373 758.82L316.271 505.54C317.091 501.092 320.968 497.862 325.491 497.859L363.017 497.859C365.674 497.861 368.206 498.99 369.984 500.965C371.761 502.935 372.62 505.567 372.348 508.206L344.206 780.229C343.917 783.062 342.355 785.61 339.961 787.154C338.447 788.136 336.682 788.661 334.877 788.666C333.867 788.666 332.865 788.499 331.909 788.172L275.626 769.401C271.187 767.944 268.522 763.409 269.373 758.82Z" fill="#434a54" fill-rule="nonzero" opacity="1" stroke="none"/>
<path d="M325.492 704.241L326 704.241L674.842 723.039C674.925 723.039 674.993 723.067 675.076 723.067C700.002 724.386 719.473 744.887 719.473 769.895C719.473 795.756 698.436 816.806 672.575 816.806L325.492 816.806C294.464 816.806 269.209 791.552 269.209 760.524C269.209 729.468 294.464 704.241 325.492 704.241Z" fill="#568bc0" fill-rule="nonzero" opacity="1" stroke="none"/>
<path d="M672.574 779.267C677.645 779.267 681.808 775.226 681.945 770.142C682.083 764.976 678.002 760.661 672.821 760.523L316.354 751.124C311.187 750.986 306.872 755.081 306.734 760.275C306.597 765.442 310.692 769.756 315.873 769.894L672.327 779.267C672.327 779.267 672.574 779.267 672.574 779.267Z" fill="#5d97ca" fill-rule="nonzero" opacity="1" stroke="none"/>
<path d="M325.492 516.628L470.885 516.628C483.829 516.615 494.34 506.104 494.34 493.173C494.34 480.242 483.815 469.717 470.885 469.717L360.559 469.717L343.904 410.878C342.756 406.844 339.07 404.062 334.876 404.063L297.349 404.063C294.381 404.063 291.591 405.464 289.819 407.841C288.06 410.219 287.511 413.297 288.363 416.128L316.505 509.937C317.697 513.905 321.348 516.623 325.492 516.628Z" fill="#568bc0" fill-rule="nonzero" opacity="1" stroke="none"/>
<path d="M391.16 469.717L470.885 469.717C483.815 469.717 494.34 480.242 494.34 493.173C494.34 506.103 483.829 516.614 470.885 516.628L391.16 516.628L391.16 469.717Z" fill="#656d78" fill-rule="nonzero" opacity="1" stroke="none"/>
<path d="M447.442 469.717L428.672 469.717L428.672 516.628L447.442 516.628L447.442 469.717Z" fill="#434a54" fill-rule="nonzero" opacity="1" stroke="none"/>
</g>
<g id="Layer-9" vectornator:layerName="Layer 9" visibility="hidden">
<path d="M407.117 709.698L712.611 724.973L712.611 747.885L407.117 747.885L407.117 709.698Z" fill="#c1dff7" fill-rule="nonzero" opacity="1" stroke="none"/>
<path d="M712.611 747.885L720.249 747.885L720.249 778.435L277.281 778.435L277.281 747.885L407.117 747.885L712.611 747.885Z" fill="#2060a1" fill-rule="nonzero" opacity="1" stroke="none"/>
<path d="M529.315 457.665L529.315 480.577L368.93 480.577L391.842 457.665L529.315 457.665Z" fill="#c1dff7" fill-rule="nonzero" opacity="1" stroke="none"/>
<path d="M575.139 457.665L529.315 457.665L529.315 457.665L529.315 480.577L529.315 480.577L575.139 480.577L575.139 480.577L575.139 457.665L575.139 457.665Z" fill="#2060a1" fill-rule="nonzero" opacity="1" stroke="none"/>
<path d="M304.234 681.02L304.234 681.02L330.743 442.39L277.281 388.929L307.831 358.379L399.479 450.028L391.842 457.665L368.93 480.577L342.718 683.731L407.117 694.423L407.117 747.885L277.281 747.885L277.281 717.336C277.321 700.627 288.253 685.898 304.234 681.02Z" fill="#2060a1" fill-rule="nonzero" opacity="1" stroke="none"/>
<path d="M329.216 456.138L330.743 442.39L368.93 480.577L367.181 494.103L330.743 457.665L329.216 456.138Z" fill="#222426" fill-rule="nonzero" opacity="0.24" stroke="none"/>
<path d="M304.875 675.208L324.48 672.405C328.49 671.832 332.109 669.689 334.539 666.448L347.11 649.691L342.718 683.693L315.468 679.149C313.418 679.189 311.375 679.396 309.358 679.767C307.641 680.089 305.943 680.507 304.272 681.02L304.272 681.02L304.875 675.208Z" fill="#222426" fill-rule="nonzero" opacity="0.24" stroke="none"/>
<path d="M407.117 709.698L416.06 727.585C419.942 735.345 427.874 740.247 436.551 740.248L712.611 740.248L712.611 747.885L407.117 747.885L407.117 709.698Z" fill="#222426" fill-rule="nonzero" opacity="0.24" stroke="none"/>
<path d="M697.337 786.072L613.326 786.072L613.326 786.072L613.326 801.347L613.326 801.347L697.337 801.347L697.337 801.347L697.337 786.072L697.337 786.072Z" fill="#2060a1" fill-rule="nonzero" opacity="1" stroke="none"/>
<path d="M384.205 786.072L300.194 786.072L300.194 786.072L300.194 801.347L300.194 801.347L384.205 801.347L384.205 801.347L384.205 786.072L384.205 786.072Z" fill="#2060a1" fill-rule="nonzero" opacity="1" stroke="none"/>
<path d="M697.337 786.072L613.326 786.072L613.326 786.072L613.326 801.347L613.326 801.347L697.337 801.347L697.337 801.347L697.337 786.072L697.337 786.072Z" fill="#222426" fill-rule="nonzero" opacity="0.24" stroke="none"/>
<path d="M384.205 786.072L300.194 786.072L300.194 786.072L300.194 801.347L300.194 801.347L384.205 801.347L384.205 801.347L384.205 786.072L384.205 786.072Z" fill="#222426" fill-rule="nonzero" opacity="0.24" stroke="none"/>
</g>
</svg>
